<svg width="553" height="322" viewBox="0 0 553 322" fill="none" xmlns="http://www.w3.org/2000/svg">
<g opacity="0.2">
<mask id="path-1-outside-1_1_1295" maskUnits="userSpaceOnUse" x="0" y="0" width="553" height="322" fill="black">
<rect fill="white" width="553" height="322"/>
<path d="M549.381 234.88C526.291 219.212 498.69 212.456 471.625 210.703C464.82 210.192 458.016 210.009 451.211 210.155C456.372 203.508 461.112 196.569 465.203 189.302C477.703 167.681 485.196 142.92 484.202 117.976L484.087 114.653L480.876 114.397C453.734 112.206 427.395 119.291 404 130.394C404.038 129.955 404.114 129.554 404.191 129.115C407.02 105.486 403.77 80.8347 393.143 59.1413L391.728 56.2927L388.785 57.0596C364.204 63.4508 343.217 77.5113 326.282 94.457C325.135 88.5041 323.759 82.5877 322.039 76.7444C314.47 49.7189 301.204 23.2047 279.07 3.15474L276.7 1L274.024 3.15474C252.158 20.7943 236.829 44.8981 227.692 70.4628C225.36 76.7079 223.449 83.099 221.843 89.5997C205.826 74.8453 186.559 62.8299 164.348 57.0596L161.405 56.2927L159.99 59.1413C149.363 80.8347 146.113 105.45 148.942 129.115C148.981 129.554 149.057 129.955 149.134 130.394C125.7 119.291 99.3606 112.206 72.257 114.397L69.0458 114.653L68.8929 117.976C67.899 142.92 75.3917 167.681 87.8922 189.302C91.9826 196.569 96.7229 203.508 101.884 210.155C95.0791 210.009 88.2745 210.192 81.4699 210.703C54.4045 212.493 26.7657 219.249 3.71418 234.88L1 236.706L2.75848 239.664C15.8325 261.759 36.208 279.289 59.0301 291.67C81.7375 304.306 107.694 311.976 133.001 315.92C145.349 318.184 158.729 320.339 171.764 320.814C184.877 321.325 198.065 320.814 211.101 318.915C233.312 315.591 255.331 308.543 274.101 296.527C274.177 296.527 274.216 296.527 274.292 296.491C274.368 296.564 274.445 296.637 274.56 296.71L276.815 298.499L278.803 296.71C278.879 296.637 278.956 296.564 279.032 296.491C279.109 296.491 279.185 296.491 279.262 296.527C298.032 308.543 320.013 315.591 342.261 318.915C355.259 320.777 368.448 321.288 381.598 320.814C394.634 320.339 408.014 318.184 420.361 315.92C445.668 311.939 471.625 304.27 494.332 291.67C517.154 279.289 537.53 261.759 550.604 239.664L552.362 236.706L549.381 234.88ZM229.603 150.151C229.603 136.821 229.642 124.404 231.4 111.585C231.782 108.773 232.203 105.998 232.662 103.186C239.772 110.344 246.309 118.086 252.005 126.34C259.039 136.529 264.544 147.595 270.431 158.442C264.697 147.522 259.421 136.383 252.502 126.048C246.768 117.21 240.269 108.773 233.044 100.921C234.65 91.864 236.714 82.8799 239.504 74.0784C246.921 50.8145 258.618 28.2811 276.624 10.9337C296.961 28.1716 311.106 52.0928 319.86 77.2557C321.848 83.2816 323.53 89.3806 324.982 95.5526C324.562 95.9909 324.103 96.3926 323.683 96.8309C314.852 105.779 307.13 115.639 300.402 126.048C293.482 136.383 288.169 147.522 282.473 158.442C288.36 147.595 293.826 136.529 300.899 126.34C307.971 116.187 316.152 106.765 325.25 98.2917C325.365 98.1822 325.479 98.1091 325.556 97.9996C327.008 104.646 328.088 111.921 328.853 118.678C331.274 134.091 330.716 148.91 330.334 159.866C330.334 145.878 330.717 138.136 329.761 124.075C329.149 117.027 327.964 103.952 326.703 96.977C343.943 81.6747 364.663 69.7689 387.026 64.8751C394.443 84.852 395.016 106.618 391.652 127.472C391.117 130.868 390.39 134.265 389.626 137.625C382.248 141.788 375.099 146.317 368.295 151.284C357.514 158.843 347.919 167.754 338.018 176.264C348.034 167.901 357.782 159.136 368.639 151.722C375.214 147.266 382.095 143.212 389.167 139.56C387.523 146.353 385.497 153.073 383.127 159.683C381.216 164.906 378.999 170.055 376.628 175.132L368.83 190.361C361.49 205.371 352.812 219.285 342.338 231.958C335.839 234.551 329.455 237.4 323.3 240.687C319.898 242.476 316.572 244.412 313.246 246.384C315.158 241.965 316.916 237.473 318.484 232.981C322.612 221.221 325.365 209.096 327.391 196.935C328.041 192.954 328.385 188.973 328.843 184.956C331.825 182.034 334.845 179.076 337.98 176.3C334.845 178.966 331.863 181.852 328.843 184.7C329.723 176.519 330.461 165.015 330.423 156.762C330.347 165.125 329.455 176.739 328.461 185.065C323.262 190.032 318.216 195.182 313.552 200.623C306.136 209.352 299.217 218.519 293.444 228.379C292.794 229.475 292.183 230.607 291.571 231.703C291.342 227.831 290.998 223.924 290.501 220.089C289.124 209.315 286.448 198.761 283.123 188.425C281.249 182.618 278.956 176.921 276.509 171.297C278.344 166.951 284.408 154.971 286.549 150.771C284.37 154.898 278.268 166.805 276.395 171.041C274.521 166.805 270.992 159.426 268.813 155.336C270.954 159.536 274.445 166.988 276.28 171.297C273.795 176.921 271.54 182.618 269.666 188.425C266.341 198.761 263.665 209.279 262.288 220.089C261.83 223.924 261.486 227.831 261.218 231.703C260.606 230.607 259.995 229.475 259.345 228.379C253.534 218.519 246.615 209.388 239.237 200.623C236.829 197.811 234.229 195.145 231.668 192.443C229.833 178.565 229.183 164.468 229.603 150.151ZM291.839 235.574C292.871 233.419 293.903 231.301 295.05 229.183C300.44 219.249 306.671 209.717 314.011 200.915C318.522 195.474 323.415 190.324 328.461 185.321C328.002 189.156 327.582 193.027 326.932 196.825C324.829 208.987 321.312 220.892 316.84 232.396C314.661 238.021 312.138 243.499 309.309 248.794C302.504 253.104 296.044 257.888 289.965 263.147C290.577 259.641 291.112 256.135 291.456 252.629C291.992 246.968 292.068 241.235 291.839 235.574ZM296.158 262.964C299.331 260.006 302.657 257.231 306.059 254.528C303.957 258.107 301.778 261.65 299.408 265.046C297.84 267.311 296.158 269.502 294.476 271.656C292.068 272.898 289.621 274.03 287.137 275.126C287.519 273.775 287.901 272.46 288.245 271.109C290.806 268.297 293.406 265.557 296.158 262.964ZM311.602 250.365C315.655 247.443 319.86 244.667 324.218 242.184C329.723 239.007 335.38 236.085 341.191 233.456C337.636 237.656 333.889 241.746 329.914 245.654C321.848 253.761 312.749 261.065 302.81 267.091C306.059 261.65 309.003 256.062 311.602 250.365ZM249.52 252.812C245.277 244.266 241.836 235.355 239.122 226.298C235.72 215.341 233.35 204.275 231.821 193.063C234.229 195.656 236.676 198.213 238.893 200.952C246.194 209.754 252.464 219.285 257.854 229.219C259.001 231.301 260.033 233.456 261.065 235.61C260.836 241.308 260.912 247.005 261.447 252.739C261.753 256.245 262.288 259.751 262.938 263.257C258.657 259.495 254.184 256.026 249.52 252.812ZM264.659 271.072C265.003 272.423 265.385 273.775 265.767 275.089C264.506 274.542 263.282 273.957 262.021 273.373C258.886 269.063 255.981 264.608 253.381 259.97C254.49 260.956 255.675 261.942 256.745 262.928C259.498 265.557 262.135 268.297 264.659 271.072ZM244.971 263.695C237.058 258.363 229.68 252.3 223.028 245.617C219.053 241.709 215.306 237.619 211.751 233.419C217.562 236.085 223.219 239.007 228.724 242.148C230.865 243.389 232.968 244.704 235.07 246.019C237.975 252.118 241.301 258.034 244.971 263.695ZM165.877 64.9481C186.024 69.3672 204.908 79.4469 221.04 92.5944C216.644 111.585 215.077 131.197 215.574 150.151C215.536 159.063 215.727 168.485 216.491 177.798C215.956 177.323 215.421 176.775 214.886 176.3C215.459 176.775 215.956 177.323 216.491 177.834C216.835 182.034 217.294 186.234 217.944 190.361C220.046 203.728 223.258 216.985 227.96 229.767C229.642 234.186 231.515 238.569 233.541 242.914C232.241 242.184 230.941 241.417 229.603 240.723C223.449 237.436 217.065 234.588 210.566 231.995C200.091 219.359 191.452 205.444 184.074 190.397L176.275 175.168C173.905 170.092 171.726 164.979 169.777 159.72C167.406 153.11 165.38 146.39 163.737 139.597C170.809 143.249 177.69 147.266 184.265 151.758C195.122 159.172 204.832 167.901 214.886 176.3C204.985 167.791 195.389 158.88 184.609 151.32C177.805 146.39 170.656 141.825 163.278 137.661C162.513 134.301 161.787 130.905 161.252 127.508C157.888 106.692 158.499 84.9251 165.877 64.9481ZM209.457 307.812C184.686 310.113 160.143 307.885 135.448 302.736C110.485 298.755 86.9365 291.962 64.8408 281.115C44.0447 270.78 24.6249 256.939 11.1686 238.532C31.0472 223.997 56.1248 215.926 81.4699 212.675C88.5039 211.872 95.5761 211.433 102.648 211.324C112.74 224.106 124.515 235.683 136.901 245.763C146.075 253.652 156.244 261.978 166.986 268.698C177.805 275.455 189.235 281.408 201.238 286.046C218.556 292.656 237.134 296.856 255.828 297.331C241.148 303.174 225.284 306.497 209.457 307.812ZM205.979 275.856C183.845 265.886 164.348 252.191 146.305 235.866C137.092 228.343 128.529 220.381 120.73 211.908C121.151 211.945 121.571 211.945 121.953 211.981C135.448 213.004 148.751 215.743 162.093 218.007C148.789 215.56 135.563 212.639 122.03 211.433C121.38 211.36 120.73 211.324 120.118 211.287C112.129 202.595 104.942 193.319 98.5961 183.349C86.7072 164.504 77.9912 143.359 76.6532 121.3C100.966 118.488 126.273 123.491 149.325 132.84C152.306 155.228 160.64 177.104 171.535 196.423C176.352 205.627 181.857 215.451 188.279 224.325C179.678 221.769 165.718 218.593 156.849 217.023C165.833 218.739 179.907 222.098 188.623 224.8C189.158 225.531 189.617 226.261 190.152 226.955C197.454 236.596 205.673 245.654 214.847 253.688C227.233 264.389 241.454 273.41 256.86 279.655C260.071 283.38 263.435 286.995 267.067 290.392C245.927 290.282 224.978 284.621 205.979 275.856ZM269.781 269.611C267.87 263.951 266.379 258.144 265.385 252.227C264.888 249.087 264.506 245.946 264.2 242.768C266.532 248.539 268.52 254.455 270.087 260.408C271.081 264.352 271.845 268.333 272.457 272.314C271.616 271.364 270.699 270.488 269.781 269.611ZM276.471 267.785C273.566 256.719 269.131 246.128 263.741 236.049C263.512 230.79 263.626 225.494 264.123 220.235C265.079 209.534 266.99 198.87 270.202 188.535C271.96 182.765 274.101 177.104 276.471 171.516C278.803 177.104 280.944 182.765 282.74 188.535C285.951 198.87 287.863 209.534 288.819 220.235C289.316 225.494 289.43 230.79 289.201 236.049C283.811 246.092 279.376 256.719 276.471 267.785ZM280.408 272.277C281.02 268.297 281.785 264.316 282.779 260.372C284.346 254.419 286.334 248.502 288.666 242.732C288.36 245.909 288.016 249.05 287.481 252.191C286.487 258.107 284.996 263.914 283.084 269.575C282.243 270.488 281.288 271.364 280.408 272.277ZM293.33 280.714C309.768 274.469 324.906 265.046 338.018 253.688C347.193 245.654 355.412 236.596 362.713 226.955C363.249 226.261 363.707 225.494 364.242 224.8C372.958 222.061 381.789 219.687 390.773 217.971C381.904 219.541 373.188 221.769 364.587 224.325C371.009 215.414 376.514 205.627 381.33 196.423C392.225 177.104 400.559 155.191 403.541 132.84C426.592 123.491 451.938 118.488 476.212 121.3C474.874 143.322 466.158 164.504 454.269 183.349C447.924 193.319 440.737 202.559 432.747 211.287C432.097 211.36 431.447 211.397 430.836 211.433C417.303 212.639 404.076 215.56 390.773 218.007C404.114 215.743 417.418 213.004 430.912 211.981C431.333 211.945 431.753 211.945 432.135 211.908C424.299 220.381 415.774 228.343 406.561 235.866C388.517 252.191 369.021 265.886 346.887 275.856C327.658 284.731 306.442 290.428 285.034 290.392C288.016 287.287 290.73 284.037 293.33 280.714ZM488.063 281.152C465.967 291.999 442.457 298.792 417.456 302.772C392.761 307.922 368.218 310.113 343.446 307.849C327.62 306.534 311.755 303.211 297.038 297.404C315.731 296.965 334.31 292.729 351.627 286.119C363.631 281.444 375.061 275.528 385.88 268.771C396.622 262.051 406.79 253.725 415.965 245.836C428.389 235.756 440.125 224.179 450.217 211.397C457.289 211.507 464.362 211.945 471.396 212.748C496.741 215.999 521.818 224.07 541.697 238.605C528.279 256.975 508.859 270.817 488.063 281.152Z"/>
</mask>
<path d="M549.381 234.88C526.291 219.212 498.69 212.456 471.625 210.703C464.82 210.192 458.016 210.009 451.211 210.155C456.372 203.508 461.112 196.569 465.203 189.302C477.703 167.681 485.196 142.92 484.202 117.976L484.087 114.653L480.876 114.397C453.734 112.206 427.395 119.291 404 130.394C404.038 129.955 404.114 129.554 404.191 129.115C407.02 105.486 403.77 80.8347 393.143 59.1413L391.728 56.2927L388.785 57.0596C364.204 63.4508 343.217 77.5113 326.282 94.457C325.135 88.5041 323.759 82.5877 322.039 76.7444C314.47 49.7189 301.204 23.2047 279.07 3.15474L276.7 1L274.024 3.15474C252.158 20.7943 236.829 44.8981 227.692 70.4628C225.36 76.7079 223.449 83.099 221.843 89.5997C205.826 74.8453 186.559 62.8299 164.348 57.0596L161.405 56.2927L159.99 59.1413C149.363 80.8347 146.113 105.45 148.942 129.115C148.981 129.554 149.057 129.955 149.134 130.394C125.7 119.291 99.3606 112.206 72.257 114.397L69.0458 114.653L68.8929 117.976C67.899 142.92 75.3917 167.681 87.8922 189.302C91.9826 196.569 96.7229 203.508 101.884 210.155C95.0791 210.009 88.2745 210.192 81.4699 210.703C54.4045 212.493 26.7657 219.249 3.71418 234.88L1 236.706L2.75848 239.664C15.8325 261.759 36.208 279.289 59.0301 291.67C81.7375 304.306 107.694 311.976 133.001 315.92C145.349 318.184 158.729 320.339 171.764 320.814C184.877 321.325 198.065 320.814 211.101 318.915C233.312 315.591 255.331 308.543 274.101 296.527C274.177 296.527 274.216 296.527 274.292 296.491C274.368 296.564 274.445 296.637 274.56 296.71L276.815 298.499L278.803 296.71C278.879 296.637 278.956 296.564 279.032 296.491C279.109 296.491 279.185 296.491 279.262 296.527C298.032 308.543 320.013 315.591 342.261 318.915C355.259 320.777 368.448 321.288 381.598 320.814C394.634 320.339 408.014 318.184 420.361 315.92C445.668 311.939 471.625 304.27 494.332 291.67C517.154 279.289 537.53 261.759 550.604 239.664L552.362 236.706L549.381 234.88ZM229.603 150.151C229.603 136.821 229.642 124.404 231.4 111.585C231.782 108.773 232.203 105.998 232.662 103.186C239.772 110.344 246.309 118.086 252.005 126.34C259.039 136.529 264.544 147.595 270.431 158.442C264.697 147.522 259.421 136.383 252.502 126.048C246.768 117.21 240.269 108.773 233.044 100.921C234.65 91.864 236.714 82.8799 239.504 74.0784C246.921 50.8145 258.618 28.2811 276.624 10.9337C296.961 28.1716 311.106 52.0928 319.86 77.2557C321.848 83.2816 323.53 89.3806 324.982 95.5526C324.562 95.9909 324.103 96.3926 323.683 96.8309C314.852 105.779 307.13 115.639 300.402 126.048C293.482 136.383 288.169 147.522 282.473 158.442C288.36 147.595 293.826 136.529 300.899 126.34C307.971 116.187 316.152 106.765 325.25 98.2917C325.365 98.1822 325.479 98.1091 325.556 97.9996C327.008 104.646 328.088 111.921 328.853 118.678C331.274 134.091 330.716 148.91 330.334 159.866C330.334 145.878 330.717 138.136 329.761 124.075C329.149 117.027 327.964 103.952 326.703 96.977C343.943 81.6747 364.663 69.7689 387.026 64.8751C394.443 84.852 395.016 106.618 391.652 127.472C391.117 130.868 390.39 134.265 389.626 137.625C382.248 141.788 375.099 146.317 368.295 151.284C357.514 158.843 347.919 167.754 338.018 176.264C348.034 167.901 357.782 159.136 368.639 151.722C375.214 147.266 382.095 143.212 389.167 139.56C387.523 146.353 385.497 153.073 383.127 159.683C381.216 164.906 378.999 170.055 376.628 175.132L368.83 190.361C361.49 205.371 352.812 219.285 342.338 231.958C335.839 234.551 329.455 237.4 323.3 240.687C319.898 242.476 316.572 244.412 313.246 246.384C315.158 241.965 316.916 237.473 318.484 232.981C322.612 221.221 325.365 209.096 327.391 196.935C328.041 192.954 328.385 188.973 328.843 184.956C331.825 182.034 334.845 179.076 337.98 176.3C334.845 178.966 331.863 181.852 328.843 184.7C329.723 176.519 330.461 165.015 330.423 156.762C330.347 165.125 329.455 176.739 328.461 185.065C323.262 190.032 318.216 195.182 313.552 200.623C306.136 209.352 299.217 218.519 293.444 228.379C292.794 229.475 292.183 230.607 291.571 231.703C291.342 227.831 290.998 223.924 290.501 220.089C289.124 209.315 286.448 198.761 283.123 188.425C281.249 182.618 278.956 176.921 276.509 171.297C278.344 166.951 284.408 154.971 286.549 150.771C284.37 154.898 278.268 166.805 276.395 171.041C274.521 166.805 270.992 159.426 268.813 155.336C270.954 159.536 274.445 166.988 276.28 171.297C273.795 176.921 271.54 182.618 269.666 188.425C266.341 198.761 263.665 209.279 262.288 220.089C261.83 223.924 261.486 227.831 261.218 231.703C260.606 230.607 259.995 229.475 259.345 228.379C253.534 218.519 246.615 209.388 239.237 200.623C236.829 197.811 234.229 195.145 231.668 192.443C229.833 178.565 229.183 164.468 229.603 150.151ZM291.839 235.574C292.871 233.419 293.903 231.301 295.05 229.183C300.44 219.249 306.671 209.717 314.011 200.915C318.522 195.474 323.415 190.324 328.461 185.321C328.002 189.156 327.582 193.027 326.932 196.825C324.829 208.987 321.312 220.892 316.84 232.396C314.661 238.021 312.138 243.499 309.309 248.794C302.504 253.104 296.044 257.888 289.965 263.147C290.577 259.641 291.112 256.135 291.456 252.629C291.992 246.968 292.068 241.235 291.839 235.574ZM296.158 262.964C299.331 260.006 302.657 257.231 306.059 254.528C303.957 258.107 301.778 261.65 299.408 265.046C297.84 267.311 296.158 269.502 294.476 271.656C292.068 272.898 289.621 274.03 287.137 275.126C287.519 273.775 287.901 272.46 288.245 271.109C290.806 268.297 293.406 265.557 296.158 262.964ZM311.602 250.365C315.655 247.443 319.86 244.667 324.218 242.184C329.723 239.007 335.38 236.085 341.191 233.456C337.636 237.656 333.889 241.746 329.914 245.654C321.848 253.761 312.749 261.065 302.81 267.091C306.059 261.65 309.003 256.062 311.602 250.365ZM249.52 252.812C245.277 244.266 241.836 235.355 239.122 226.298C235.72 215.341 233.35 204.275 231.821 193.063C234.229 195.656 236.676 198.213 238.893 200.952C246.194 209.754 252.464 219.285 257.854 229.219C259.001 231.301 260.033 233.456 261.065 235.61C260.836 241.308 260.912 247.005 261.447 252.739C261.753 256.245 262.288 259.751 262.938 263.257C258.657 259.495 254.184 256.026 249.52 252.812ZM264.659 271.072C265.003 272.423 265.385 273.775 265.767 275.089C264.506 274.542 263.282 273.957 262.021 273.373C258.886 269.063 255.981 264.608 253.381 259.97C254.49 260.956 255.675 261.942 256.745 262.928C259.498 265.557 262.135 268.297 264.659 271.072ZM244.971 263.695C237.058 258.363 229.68 252.3 223.028 245.617C219.053 241.709 215.306 237.619 211.751 233.419C217.562 236.085 223.219 239.007 228.724 242.148C230.865 243.389 232.968 244.704 235.07 246.019C237.975 252.118 241.301 258.034 244.971 263.695ZM165.877 64.9481C186.024 69.3672 204.908 79.4469 221.04 92.5944C216.644 111.585 215.077 131.197 215.574 150.151C215.536 159.063 215.727 168.485 216.491 177.798C215.956 177.323 215.421 176.775 214.886 176.3C215.459 176.775 215.956 177.323 216.491 177.834C216.835 182.034 217.294 186.234 217.944 190.361C220.046 203.728 223.258 216.985 227.96 229.767C229.642 234.186 231.515 238.569 233.541 242.914C232.241 242.184 230.941 241.417 229.603 240.723C223.449 237.436 217.065 234.588 210.566 231.995C200.091 219.359 191.452 205.444 184.074 190.397L176.275 175.168C173.905 170.092 171.726 164.979 169.777 159.72C167.406 153.11 165.38 146.39 163.737 139.597C170.809 143.249 177.69 147.266 184.265 151.758C195.122 159.172 204.832 167.901 214.886 176.3C204.985 167.791 195.389 158.88 184.609 151.32C177.805 146.39 170.656 141.825 163.278 137.661C162.513 134.301 161.787 130.905 161.252 127.508C157.888 106.692 158.499 84.9251 165.877 64.9481ZM209.457 307.812C184.686 310.113 160.143 307.885 135.448 302.736C110.485 298.755 86.9365 291.962 64.8408 281.115C44.0447 270.78 24.6249 256.939 11.1686 238.532C31.0472 223.997 56.1248 215.926 81.4699 212.675C88.5039 211.872 95.5761 211.433 102.648 211.324C112.74 224.106 124.515 235.683 136.901 245.763C146.075 253.652 156.244 261.978 166.986 268.698C177.805 275.455 189.235 281.408 201.238 286.046C218.556 292.656 237.134 296.856 255.828 297.331C241.148 303.174 225.284 306.497 209.457 307.812ZM205.979 275.856C183.845 265.886 164.348 252.191 146.305 235.866C137.092 228.343 128.529 220.381 120.73 211.908C121.151 211.945 121.571 211.945 121.953 211.981C135.448 213.004 148.751 215.743 162.093 218.007C148.789 215.56 135.563 212.639 122.03 211.433C121.38 211.36 120.73 211.324 120.118 211.287C112.129 202.595 104.942 193.319 98.5961 183.349C86.7072 164.504 77.9912 143.359 76.6532 121.3C100.966 118.488 126.273 123.491 149.325 132.84C152.306 155.228 160.64 177.104 171.535 196.423C176.352 205.627 181.857 215.451 188.279 224.325C179.678 221.769 165.718 218.593 156.849 217.023C165.833 218.739 179.907 222.098 188.623 224.8C189.158 225.531 189.617 226.261 190.152 226.955C197.454 236.596 205.673 245.654 214.847 253.688C227.233 264.389 241.454 273.41 256.86 279.655C260.071 283.38 263.435 286.995 267.067 290.392C245.927 290.282 224.978 284.621 205.979 275.856ZM269.781 269.611C267.87 263.951 266.379 258.144 265.385 252.227C264.888 249.087 264.506 245.946 264.2 242.768C266.532 248.539 268.52 254.455 270.087 260.408C271.081 264.352 271.845 268.333 272.457 272.314C271.616 271.364 270.699 270.488 269.781 269.611ZM276.471 267.785C273.566 256.719 269.131 246.128 263.741 236.049C263.512 230.79 263.626 225.494 264.123 220.235C265.079 209.534 266.99 198.87 270.202 188.535C271.96 182.765 274.101 177.104 276.471 171.516C278.803 177.104 280.944 182.765 282.74 188.535C285.951 198.87 287.863 209.534 288.819 220.235C289.316 225.494 289.43 230.79 289.201 236.049C283.811 246.092 279.376 256.719 276.471 267.785ZM280.408 272.277C281.02 268.297 281.785 264.316 282.779 260.372C284.346 254.419 286.334 248.502 288.666 242.732C288.36 245.909 288.016 249.05 287.481 252.191C286.487 258.107 284.996 263.914 283.084 269.575C282.243 270.488 281.288 271.364 280.408 272.277ZM293.33 280.714C309.768 274.469 324.906 265.046 338.018 253.688C347.193 245.654 355.412 236.596 362.713 226.955C363.249 226.261 363.707 225.494 364.242 224.8C372.958 222.061 381.789 219.687 390.773 217.971C381.904 219.541 373.188 221.769 364.587 224.325C371.009 215.414 376.514 205.627 381.33 196.423C392.225 177.104 400.559 155.191 403.541 132.84C426.592 123.491 451.938 118.488 476.212 121.3C474.874 143.322 466.158 164.504 454.269 183.349C447.924 193.319 440.737 202.559 432.747 211.287C432.097 211.36 431.447 211.397 430.836 211.433C417.303 212.639 404.076 215.56 390.773 218.007C404.114 215.743 417.418 213.004 430.912 211.981C431.333 211.945 431.753 211.945 432.135 211.908C424.299 220.381 415.774 228.343 406.561 235.866C388.517 252.191 369.021 265.886 346.887 275.856C327.658 284.731 306.442 290.428 285.034 290.392C288.016 287.287 290.73 284.037 293.33 280.714ZM488.063 281.152C465.967 291.999 442.457 298.792 417.456 302.772C392.761 307.922 368.218 310.113 343.446 307.849C327.62 306.534 311.755 303.211 297.038 297.404C315.731 296.965 334.31 292.729 351.627 286.119C363.631 281.444 375.061 275.528 385.88 268.771C396.622 262.051 406.79 253.725 415.965 245.836C428.389 235.756 440.125 224.179 450.217 211.397C457.289 211.507 464.362 211.945 471.396 212.748C496.741 215.999 521.818 224.07 541.697 238.605C528.279 256.975 508.859 270.817 488.063 281.152Z" fill="#49C5B6"/>
<path d="M549.381 234.88L549.212 235.128L549.224 235.136L549.381 234.88ZM471.625 210.703L471.602 211.002L471.606 211.002L471.625 210.703ZM451.211 210.155L450.974 209.971L450.588 210.469L451.218 210.455L451.211 210.155ZM465.203 189.302L464.943 189.152L464.941 189.155L465.203 189.302ZM484.202 117.976L483.902 117.987L483.902 117.988L484.202 117.976ZM484.087 114.653L484.387 114.643L484.378 114.375L484.111 114.354L484.087 114.653ZM480.876 114.397L480.852 114.696L480.852 114.696L480.876 114.397ZM404 130.394L403.701 130.368L403.655 130.889L404.128 130.665L404 130.394ZM404.191 129.115L404.486 129.167L404.488 129.159L404.489 129.151L404.191 129.115ZM393.143 59.1413L393.412 59.0093L393.412 59.0079L393.143 59.1413ZM391.728 56.2927L391.997 56.1592L391.889 55.9409L391.653 56.0024L391.728 56.2927ZM388.785 57.0596L388.86 57.3499L388.86 57.3499L388.785 57.0596ZM326.282 94.457L325.987 94.5138L326.094 95.0691L326.494 94.6691L326.282 94.457ZM322.039 76.7444L321.75 76.8253L321.751 76.8291L322.039 76.7444ZM279.07 3.15474L278.869 3.37672L278.869 3.37708L279.07 3.15474ZM276.7 1L276.902 0.778022L276.712 0.605307L276.512 0.766336L276.7 1ZM274.024 3.15474L273.836 2.92108L273.836 2.92125L274.024 3.15474ZM227.692 70.4628L227.973 70.5677L227.975 70.5637L227.692 70.4628ZM221.843 89.5997L221.64 89.8204L222.013 90.1639L222.134 89.6717L221.843 89.5997ZM164.348 57.0596L164.273 57.3499L164.273 57.35L164.348 57.0596ZM161.405 56.2927L161.48 56.0024L161.244 55.9409L161.136 56.1592L161.405 56.2927ZM159.99 59.1413L159.722 59.0079L159.721 59.0093L159.99 59.1413ZM148.942 129.115L149.241 129.089L149.24 129.08L148.942 129.115ZM149.134 130.394L149.005 130.665L149.529 130.913L149.429 130.342L149.134 130.394ZM72.257 114.397L72.2808 114.696L72.2812 114.696L72.257 114.397ZM69.0458 114.653L69.022 114.354L68.7583 114.375L68.7462 114.639L69.0458 114.653ZM68.8929 117.976L68.5932 117.963L68.5932 117.965L68.8929 117.976ZM87.8923 189.302L88.1537 189.155L88.152 189.152L87.8923 189.302ZM101.884 210.155L101.877 210.455L102.507 210.469L102.121 209.971L101.884 210.155ZM81.4699 210.703L81.4897 211.002L81.4924 211.002L81.4699 210.703ZM3.71418 234.88L3.88164 235.129L3.88255 235.128L3.71418 234.88ZM1 236.706L0.832538 236.457L0.597168 236.615L0.742121 236.859L1 236.706ZM2.75848 239.664L3.01667 239.511L3.01636 239.511L2.75848 239.664ZM59.0301 291.67L59.176 291.408L59.1732 291.406L59.0301 291.67ZM133.001 315.92L133.055 315.625L133.047 315.623L133.001 315.92ZM171.764 320.814L171.776 320.514L171.775 320.514L171.764 320.814ZM211.101 318.915L211.144 319.211L211.146 319.211L211.101 318.915ZM274.101 296.527V296.227H274.013L273.939 296.275L274.101 296.527ZM274.292 296.491L274.499 296.274L274.349 296.131L274.163 296.22L274.292 296.491ZM274.56 296.71L274.746 296.475L274.734 296.465L274.721 296.457L274.56 296.71ZM276.815 298.499L276.629 298.734L276.827 298.892L277.016 298.722L276.815 298.499ZM278.803 296.71L279.004 296.933L279.01 296.927L278.803 296.71ZM279.032 296.491V296.191H278.912L278.825 296.274L279.032 296.491ZM279.262 296.527L279.423 296.275L279.408 296.265L279.391 296.257L279.262 296.527ZM342.261 318.915L342.217 319.211L342.219 319.212L342.261 318.915ZM381.598 320.814L381.609 321.113H381.609L381.598 320.814ZM420.361 315.92L420.315 315.623L420.307 315.625L420.361 315.92ZM494.332 291.67L494.189 291.406L494.187 291.408L494.332 291.67ZM550.604 239.664L550.346 239.511L550.346 239.511L550.604 239.664ZM552.362 236.706L552.62 236.859L552.772 236.605L552.519 236.45L552.362 236.706ZM229.603 150.151L229.903 150.16V150.151H229.603ZM231.4 111.585L231.697 111.626L231.697 111.626L231.4 111.585ZM232.662 103.186L232.874 102.974L232.46 102.557L232.366 103.137L232.662 103.186ZM252.005 126.34L251.758 126.51L251.758 126.51L252.005 126.34ZM270.431 158.442L270.167 158.585L270.697 158.302L270.431 158.442ZM252.502 126.048L252.25 126.211L252.253 126.215L252.502 126.048ZM233.044 100.921L232.749 100.869L232.723 101.015L232.823 101.124L233.044 100.921ZM239.504 74.0784L239.219 73.9872L239.219 73.9877L239.504 74.0784ZM276.624 10.9337L276.818 10.7048L276.611 10.5295L276.416 10.7177L276.624 10.9337ZM319.86 77.2557L320.145 77.1617L320.143 77.1571L319.86 77.2557ZM324.982 95.5526L325.199 95.7604L325.312 95.6427L325.274 95.4839L324.982 95.5526ZM323.683 96.8309L323.896 97.0416L323.899 97.0386L323.683 96.8309ZM300.402 126.048L300.651 126.215L300.654 126.21L300.402 126.048ZM282.473 158.442L282.207 158.303L282.736 158.585L282.473 158.442ZM300.899 126.34L300.652 126.168L300.652 126.169L300.899 126.34ZM325.25 98.2917L325.454 98.5113L325.457 98.5086L325.25 98.2917ZM325.556 97.9995L325.849 97.9355L325.702 97.2652L325.31 97.8279L325.556 97.9995ZM328.853 118.678L328.554 118.711L328.556 118.724L328.853 118.678ZM330.334 159.866H330.034L330.634 159.876L330.334 159.866ZM329.761 124.075L330.06 124.055L330.06 124.05L329.761 124.075ZM326.703 96.977L326.503 96.7526L326.377 96.8645L326.407 97.0303L326.703 96.977ZM387.026 64.8751L387.308 64.7707L387.217 64.5263L386.962 64.582L387.026 64.8751ZM391.652 127.472L391.356 127.424L391.356 127.425L391.652 127.472ZM389.626 137.625L389.773 137.886L389.889 137.821L389.918 137.691L389.626 137.625ZM368.295 151.284L368.467 151.529L368.472 151.526L368.295 151.284ZM338.018 176.264L337.823 176.036L338.21 176.494L338.018 176.264ZM368.639 151.722L368.47 151.473L368.47 151.474L368.639 151.722ZM389.167 139.56L389.459 139.631L389.613 138.992L389.029 139.294L389.167 139.56ZM383.127 159.683L383.409 159.786L383.41 159.785L383.127 159.683ZM376.628 175.132L376.896 175.269L376.9 175.259L376.628 175.132ZM368.83 190.361L368.563 190.224L368.56 190.229L368.83 190.361ZM342.338 231.958L342.449 232.237L342.52 232.208L342.569 232.149L342.338 231.958ZM323.3 240.687L323.44 240.952L323.442 240.951L323.3 240.687ZM313.246 246.384L312.971 246.265L312.604 247.114L313.399 246.642L313.246 246.384ZM318.484 232.981L318.2 232.881L318.2 232.882L318.484 232.981ZM327.391 196.935L327.687 196.984L327.687 196.983L327.391 196.935ZM328.843 184.956L328.633 184.742L328.557 184.816L328.545 184.922L328.843 184.956ZM337.98 176.3L338.179 176.525L337.785 176.072L337.98 176.3ZM328.843 184.7L328.545 184.668L328.458 185.476L329.049 184.918L328.843 184.7ZM330.423 156.762L330.723 156.76L330.123 156.759L330.423 156.762ZM328.461 185.065L328.668 185.282L328.746 185.208L328.759 185.101L328.461 185.065ZM313.552 200.623L313.324 200.428L313.324 200.429L313.552 200.623ZM293.444 228.379L293.702 228.532L293.703 228.531L293.444 228.379ZM291.571 231.703L291.272 231.72L291.332 232.746L291.833 231.849L291.571 231.703ZM290.501 220.089L290.203 220.127L290.203 220.128L290.501 220.089ZM283.123 188.425L283.408 188.333L283.408 188.333L283.123 188.425ZM276.509 171.297L276.233 171.18L276.183 171.299L276.234 171.417L276.509 171.297ZM286.549 150.771L286.816 150.908L286.284 150.631L286.549 150.771ZM276.395 171.041L276.12 171.163L276.395 171.783L276.669 171.163L276.395 171.041ZM268.813 155.336L269.078 155.195L268.546 155.472L268.813 155.336ZM276.28 171.297L276.554 171.418L276.607 171.299L276.556 171.179L276.28 171.297ZM269.666 188.425L269.381 188.333L269.381 188.333L269.666 188.425ZM262.288 220.089L261.991 220.051L261.991 220.053L262.288 220.089ZM261.218 231.703L260.956 231.849L261.448 232.73L261.517 231.723L261.218 231.703ZM259.345 228.379L259.086 228.532L259.087 228.532L259.345 228.379ZM239.237 200.623L239.466 200.43L239.465 200.428L239.237 200.623ZM231.668 192.443L231.37 192.482L231.383 192.578L231.45 192.649L231.668 192.443ZM291.839 235.574L291.568 235.444L291.536 235.511L291.539 235.586L291.839 235.574ZM295.05 229.183L294.786 229.04L294.786 229.04L295.05 229.183ZM314.011 200.915L314.241 201.108L314.242 201.107L314.011 200.915ZM328.461 185.321L328.759 185.357L328.861 184.502L328.25 185.108L328.461 185.321ZM326.932 196.825L327.228 196.876L327.228 196.876L326.932 196.825ZM316.84 232.396L316.56 232.288L316.56 232.288L316.84 232.396ZM309.309 248.794L309.469 249.048L309.536 249.006L309.573 248.936L309.309 248.794ZM289.965 263.147L289.67 263.096L289.525 263.925L290.162 263.374L289.965 263.147ZM291.456 252.629L291.755 252.658L291.755 252.657L291.456 252.629ZM296.158 262.964L295.954 262.745L295.953 262.746L296.158 262.964ZM306.059 254.528L306.318 254.68L305.873 254.293L306.059 254.528ZM299.408 265.046L299.162 264.875L299.161 264.875L299.408 265.046ZM294.476 271.656L294.614 271.923L294.672 271.893L294.713 271.841L294.476 271.656ZM287.137 275.126L286.848 275.044L286.674 275.658L287.258 275.4L287.137 275.126ZM288.245 271.109L288.023 270.907L287.973 270.962L287.954 271.035L288.245 271.109ZM311.602 250.365L311.427 250.121L311.363 250.168L311.33 250.24L311.602 250.365ZM324.218 242.184L324.366 242.445L324.368 242.444L324.218 242.184ZM341.191 233.456L341.42 233.649L341.067 233.182L341.191 233.456ZM329.914 245.654L329.703 245.44L329.701 245.442L329.914 245.654ZM302.81 267.091L302.552 266.938L302.966 267.348L302.81 267.091ZM249.52 252.812L249.252 252.945L249.286 253.015L249.35 253.059L249.52 252.812ZM239.122 226.298L239.41 226.211L239.409 226.209L239.122 226.298ZM231.821 193.063L232.04 192.859L231.395 192.165L231.523 193.104L231.821 193.063ZM238.893 200.952L238.66 201.141L238.662 201.144L238.893 200.952ZM257.854 229.219L257.59 229.362L257.591 229.364L257.854 229.219ZM261.065 235.61L261.365 235.622L261.368 235.548L261.336 235.481L261.065 235.61ZM261.447 252.739L261.746 252.713L261.746 252.711L261.447 252.739ZM262.938 263.257L262.74 263.482L263.391 264.054L263.233 263.202L262.938 263.257ZM264.659 271.072L264.949 270.998L264.931 270.926L264.881 270.87L264.659 271.072ZM265.767 275.089L265.648 275.365L266.234 275.619L266.055 275.006L265.767 275.089ZM262.021 273.373L261.778 273.549L261.824 273.612L261.895 273.645L262.021 273.373ZM253.381 259.97L253.581 259.746L253.12 260.116L253.381 259.97ZM256.745 262.928L256.953 262.711L256.949 262.707L256.745 262.928ZM244.971 263.695L244.803 263.944L245.223 263.532L244.971 263.695ZM223.028 245.617L223.241 245.405L223.239 245.403L223.028 245.617ZM211.751 233.419L211.876 233.146L211.522 233.613L211.751 233.419ZM228.724 242.148L228.875 241.888L228.873 241.887L228.724 242.148ZM235.07 246.019L235.341 245.89L235.303 245.811L235.229 245.764L235.07 246.019ZM165.877 64.9481L165.942 64.6551L165.686 64.5991L165.596 64.8442L165.877 64.9481ZM221.04 92.5944L221.333 92.6621L221.375 92.48L221.23 92.3619L221.04 92.5944ZM215.574 150.151L215.874 150.153L215.874 150.144L215.574 150.151ZM216.491 177.798L216.292 178.022L216.851 178.518L216.79 177.773L216.491 177.798ZM216.491 177.834L216.79 177.81L216.781 177.696L216.698 177.617L216.491 177.834ZM217.944 190.361L218.24 190.314V190.314L217.944 190.361ZM227.96 229.767L227.678 229.871L227.679 229.874L227.96 229.767ZM233.541 242.914L233.394 243.176L234.207 243.633L233.813 242.788L233.541 242.914ZM229.603 240.723L229.462 240.988L229.465 240.99L229.603 240.723ZM210.566 231.995L210.335 232.186L210.384 232.245L210.455 232.273L210.566 231.995ZM184.074 190.397L184.343 190.265L184.341 190.261L184.074 190.397ZM176.275 175.168L176.003 175.295L176.008 175.305L176.275 175.168ZM169.777 159.72L169.494 159.821L169.495 159.824L169.777 159.72ZM163.737 139.597L163.874 139.33L163.29 139.029L163.445 139.667L163.737 139.597ZM184.265 151.758L184.096 152.006L184.096 152.006L184.265 151.758ZM184.609 151.32L184.433 151.563L184.437 151.566L184.609 151.32ZM163.278 137.661L162.985 137.728L163.015 137.857L163.13 137.923L163.278 137.661ZM161.252 127.508L161.548 127.462L161.548 127.461L161.252 127.508ZM209.457 307.812L209.432 307.513L209.43 307.513L209.457 307.812ZM135.448 302.736L135.509 302.442L135.502 302.441L135.495 302.44L135.448 302.736ZM64.8408 281.115L64.7072 281.384L64.7086 281.385L64.8408 281.115ZM11.1686 238.532L10.9916 238.29L10.7494 238.467L10.9265 238.709L11.1686 238.532ZM81.4699 212.675L81.4359 212.377L81.4318 212.378L81.4699 212.675ZM102.648 211.324L102.884 211.138L102.792 211.022L102.644 211.024L102.648 211.324ZM136.901 245.763L137.096 245.536L137.09 245.53L136.901 245.763ZM166.986 268.698L166.827 268.953L166.827 268.953L166.986 268.698ZM201.238 286.046L201.13 286.326L201.131 286.326L201.238 286.046ZM255.828 297.331L255.939 297.609L255.835 297.031L255.828 297.331ZM205.979 275.856L206.104 275.584L206.102 275.583L205.979 275.856ZM146.305 235.866L146.506 235.644L146.5 235.638L146.494 235.634L146.305 235.866ZM120.73 211.908L120.756 211.609L119.986 211.542L120.509 212.111L120.73 211.908ZM121.953 211.981L121.925 212.28L121.931 212.28L121.953 211.981ZM162.093 218.007L162.043 218.303L162.147 217.712L162.093 218.007ZM122.03 211.433L121.996 211.732L122.003 211.732L122.03 211.433ZM120.118 211.287L119.898 211.49L119.98 211.58L120.101 211.587L120.118 211.287ZM98.5961 183.349L98.3424 183.509L98.343 183.51L98.5961 183.349ZM76.6532 121.3L76.6187 121.002L76.3366 121.035L76.3538 121.318L76.6532 121.3ZM149.325 132.84L149.622 132.801L149.599 132.628L149.437 132.562L149.325 132.84ZM171.535 196.423L171.801 196.284L171.796 196.276L171.535 196.423ZM188.279 224.325L188.193 224.613L189.039 224.864L188.522 224.149L188.279 224.325ZM156.849 217.023L156.902 216.727L156.793 217.317L156.849 217.023ZM188.623 224.8L188.865 224.623L188.806 224.543L188.712 224.514L188.623 224.8ZM190.152 226.955L190.391 226.774L190.39 226.772L190.152 226.955ZM214.847 253.688L214.65 253.914L214.651 253.915L214.847 253.688ZM256.86 279.655L257.087 279.459L257.04 279.404L256.973 279.377L256.86 279.655ZM267.067 290.392L267.065 290.692L267.831 290.696L267.272 290.173L267.067 290.392ZM269.781 269.611L269.497 269.707L269.52 269.777L269.574 269.828L269.781 269.611ZM265.385 252.227L265.089 252.274L265.089 252.277L265.385 252.227ZM264.2 242.768L264.478 242.656L263.901 242.797L264.2 242.768ZM270.087 260.408L270.378 260.335L270.377 260.332L270.087 260.408ZM272.457 272.314L272.232 272.513L272.908 273.276L272.754 272.268L272.457 272.314ZM276.471 267.785L276.181 267.861L276.471 268.967L276.761 267.861L276.471 267.785ZM263.741 236.049L263.441 236.062L263.444 236.13L263.477 236.19L263.741 236.049ZM264.123 220.235L264.422 220.263L264.422 220.262L264.123 220.235ZM270.202 188.535L270.488 188.624L270.489 188.622L270.202 188.535ZM276.471 171.516L276.748 171.401L276.473 170.743L276.195 171.399L276.471 171.516ZM282.74 188.535L283.027 188.446L283.027 188.446L282.74 188.535ZM288.819 220.235L288.52 220.262L288.52 220.263L288.819 220.235ZM289.201 236.049L289.465 236.19L289.498 236.13L289.501 236.062L289.201 236.049ZM280.408 272.277L280.112 272.232L279.968 273.167L280.625 272.485L280.408 272.277ZM282.779 260.372L282.488 260.295L282.488 260.298L282.779 260.372ZM288.666 242.732L288.964 242.761L288.388 242.619L288.666 242.732ZM287.481 252.191L287.185 252.14L287.185 252.141L287.481 252.191ZM283.084 269.575L283.305 269.778L283.348 269.731L283.369 269.671L283.084 269.575ZM293.33 280.714L293.223 280.433L293.145 280.463L293.093 280.529L293.33 280.714ZM338.018 253.688L338.215 253.915L338.216 253.914L338.018 253.688ZM362.713 226.955L362.476 226.772L362.474 226.774L362.713 226.955ZM364.242 224.8L364.153 224.514L364.063 224.542L364.005 224.617L364.242 224.8ZM390.773 217.971L390.829 218.265L390.72 217.675L390.773 217.971ZM364.587 224.325L364.343 224.15L363.829 224.864L364.672 224.613L364.587 224.325ZM381.33 196.423L381.069 196.276L381.065 196.284L381.33 196.423ZM403.541 132.84L403.428 132.562L403.267 132.628L403.243 132.801L403.541 132.84ZM476.212 121.3L476.512 121.318L476.529 121.035L476.247 121.002L476.212 121.3ZM454.269 183.349L454.522 183.51L454.523 183.509L454.269 183.349ZM432.747 211.287L432.781 211.586L432.892 211.573L432.968 211.49L432.747 211.287ZM430.836 211.433L430.818 211.134L430.809 211.135L430.836 211.433ZM390.773 218.007L390.718 217.712L390.823 218.303L390.773 218.007ZM430.912 211.981L430.935 212.28L430.938 212.28L430.912 211.981ZM432.135 211.908L432.356 212.112L432.889 211.535L432.107 211.61L432.135 211.908ZM406.561 235.866L406.371 235.634L406.365 235.638L406.36 235.644L406.561 235.866ZM346.887 275.856L346.764 275.583L346.761 275.584L346.887 275.856ZM285.034 290.392L284.818 290.184L284.331 290.69L285.034 290.692L285.034 290.392ZM488.063 281.152L488.195 281.421L488.197 281.421L488.063 281.152ZM417.456 302.772L417.409 302.476L417.402 302.477L417.395 302.479L417.456 302.772ZM343.446 307.849L343.474 307.55L343.471 307.55L343.446 307.849ZM297.038 297.404L297.031 297.104L296.928 297.683L297.038 297.404ZM351.627 286.119L351.734 286.399L351.736 286.398L351.627 286.119ZM385.88 268.771L386.038 269.026L386.039 269.026L385.88 268.771ZM415.965 245.836L415.776 245.603L415.769 245.609L415.965 245.836ZM450.217 211.397L450.222 211.097L450.074 211.095L449.982 211.211L450.217 211.397ZM471.396 212.748L471.434 212.451L471.43 212.45L471.396 212.748ZM541.697 238.605L541.939 238.782L542.116 238.54L541.874 238.363L541.697 238.605ZM549.549 234.632C526.401 218.925 498.743 212.159 471.644 210.404L471.606 211.002C498.638 212.753 526.181 219.5 549.212 235.128L549.549 234.632ZM471.647 210.404C464.833 209.892 458.019 209.709 451.205 209.855L451.218 210.455C458.013 210.309 464.807 210.492 471.602 211.002L471.647 210.404ZM451.448 210.339C456.616 203.683 461.365 196.732 465.464 189.449L464.941 189.155C460.859 196.407 456.128 203.334 450.974 209.971L451.448 210.339ZM465.462 189.452C477.985 167.793 485.498 142.976 484.502 117.965L483.902 117.988C484.893 142.865 477.421 167.57 464.943 189.152L465.462 189.452ZM484.502 117.966L484.387 114.643L483.787 114.663L483.902 117.987L484.502 117.966ZM484.111 114.354L480.9 114.098L480.852 114.696L484.063 114.952L484.111 114.354ZM480.9 114.098C453.691 111.902 427.299 119.005 403.871 130.123L404.128 130.665C427.492 119.577 453.777 112.511 480.852 114.696L480.9 114.098ZM404.298 130.42C404.335 129.997 404.409 129.611 404.486 129.167L403.895 129.064C403.82 129.496 403.74 129.913 403.701 130.368L404.298 130.42ZM404.489 129.151C407.323 105.472 404.068 80.7613 393.412 59.0093L392.873 59.2733C403.472 80.9081 406.716 105.5 403.893 129.08L404.489 129.151ZM393.412 59.0079L391.997 56.1592L391.46 56.4261L392.874 59.2747L393.412 59.0079ZM391.653 56.0024L388.709 56.7693L388.86 57.3499L391.804 56.583L391.653 56.0024ZM388.709 56.7693C364.065 63.177 343.033 77.2715 326.07 94.245L326.494 94.6691C343.402 77.7512 364.344 63.7245 388.86 57.3499L388.709 56.7693ZM326.577 94.4003C325.428 88.4399 324.05 82.514 322.327 76.6597L321.751 76.8291C323.468 82.6615 324.842 88.5683 325.987 94.5138L326.577 94.4003ZM322.328 76.6635C314.748 49.6017 301.46 23.0312 279.272 2.9324L278.869 3.37708C300.949 23.3782 314.191 49.8362 321.75 76.8253L322.328 76.6635ZM279.272 2.93277L276.902 0.778022L276.499 1.22198L278.869 3.37672L279.272 2.93277ZM276.512 0.766336L273.836 2.92108L274.213 3.38841L276.888 1.23366L276.512 0.766336ZM273.836 2.92125C251.919 20.6016 236.561 44.755 227.41 70.3618L227.975 70.5637C237.096 45.0412 252.397 20.9871 274.213 3.38824L273.836 2.92125ZM227.411 70.3578C225.074 76.6154 223.16 83.0178 221.552 89.5278L222.134 89.6717C223.738 83.1803 225.646 76.8003 227.973 70.5677L227.411 70.3578ZM222.046 89.3791C206.001 74.5991 186.692 62.5545 164.424 56.7692L164.273 57.35C186.426 63.1053 205.65 75.0915 221.64 89.8204L222.046 89.3791ZM164.424 56.7693L161.48 56.0024L161.329 56.583L164.273 57.3499L164.424 56.7693ZM161.136 56.1592L159.722 59.0079L160.259 59.2747L161.673 56.4261L161.136 56.1592ZM159.721 59.0093C149.065 80.7613 145.81 105.436 148.644 129.151L149.24 129.08C146.417 105.464 149.661 80.9081 160.26 59.2733L159.721 59.0093ZM148.643 129.141C148.683 129.596 148.763 130.013 148.838 130.445L149.429 130.342C149.352 129.897 149.278 129.511 149.241 129.089L148.643 129.141ZM149.262 130.122C125.796 119.005 99.4039 111.902 72.2328 114.098L72.2812 114.696C99.3174 112.511 125.603 119.577 149.005 130.665L149.262 130.122ZM72.2332 114.098L69.022 114.354L69.0696 114.952L72.2808 114.696L72.2332 114.098ZM68.7462 114.639L68.5932 117.963L69.1926 117.99L69.3455 114.667L68.7462 114.639ZM68.5932 117.965C67.5965 142.976 75.1094 167.793 87.6325 189.452L88.152 189.152C75.674 167.57 68.2014 142.865 69.1927 117.988L68.5932 117.965ZM87.6308 189.449C91.7297 196.732 96.4786 203.683 101.647 210.339L102.121 209.971C96.9672 203.334 92.2356 196.407 88.1537 189.155L87.6308 189.449ZM101.89 209.855C95.0759 209.709 88.2616 209.892 81.4475 210.404L81.4924 211.002C88.2874 210.492 95.0823 210.309 101.877 210.455L101.89 209.855ZM81.4501 210.404C54.3519 212.195 26.6557 218.961 3.54581 234.632L3.88255 235.128C26.8756 219.537 54.4571 212.79 81.4897 211.002L81.4501 210.404ZM3.54672 234.631L0.832538 236.457L1.16746 236.955L3.88164 235.129L3.54672 234.631ZM0.742121 236.859L2.5006 239.817L3.01636 239.511L1.25788 236.553L0.742121 236.859ZM2.50029 239.817C15.6079 261.969 36.0288 279.533 58.8871 291.934L59.1732 291.406C36.3872 279.045 16.057 261.55 3.01667 239.511L2.50029 239.817ZM58.8842 291.932C81.6299 304.59 107.623 312.268 132.955 316.216L133.047 315.623C107.766 311.683 81.8451 304.023 59.176 291.408L58.8842 291.932ZM132.947 316.215C145.297 318.48 158.695 320.638 171.754 321.113L171.775 320.514C158.763 320.04 145.401 317.889 133.055 315.625L132.947 316.215ZM171.753 321.113C184.88 321.625 198.088 321.114 211.144 319.211L211.058 318.618C198.043 320.514 184.873 321.025 171.776 320.514L171.753 321.113ZM211.146 319.211C233.387 315.883 255.449 308.823 274.263 296.78L273.939 296.275C255.213 308.262 233.236 315.299 211.057 318.618L211.146 319.211ZM274.101 296.827C274.133 296.827 274.187 296.828 274.244 296.819C274.307 296.809 274.364 296.789 274.421 296.761L274.163 296.22C274.152 296.225 274.147 296.227 274.146 296.227C274.146 296.227 274.147 296.227 274.149 296.226C274.15 296.226 274.149 296.227 274.141 296.227C274.132 296.227 274.121 296.227 274.101 296.227V296.827ZM274.085 296.708C274.162 296.781 274.257 296.873 274.398 296.963L274.721 296.457C274.633 296.401 274.575 296.346 274.499 296.274L274.085 296.708ZM274.373 296.945L276.629 298.734L277.001 298.264L274.746 296.475L274.373 296.945ZM277.016 298.722L279.004 296.933L278.602 296.487L276.614 298.276L277.016 298.722ZM279.01 296.927C279.01 296.927 279.01 296.926 279.011 296.926C279.011 296.926 279.011 296.926 279.011 296.926C279.011 296.926 279.011 296.926 279.011 296.925C279.012 296.925 279.012 296.925 279.012 296.925C279.012 296.925 279.012 296.925 279.012 296.925C279.013 296.924 279.013 296.924 279.013 296.924C279.013 296.924 279.013 296.924 279.014 296.923C279.014 296.923 279.014 296.923 279.015 296.922C279.031 296.907 278.999 296.937 279.016 296.922C279.02 296.917 279.012 296.924 279.017 296.92C279.021 296.917 279.016 296.921 279.019 296.918C279.023 296.914 279.017 296.92 279.021 296.916C279.021 296.916 279.021 296.916 279.022 296.916C279.022 296.916 279.023 296.915 279.023 296.915C279.023 296.914 279.024 296.913 279.024 296.913C279.033 296.905 279.024 296.914 279.032 296.906C279.036 296.902 279.034 296.904 279.039 296.899C279.042 296.896 279.039 296.899 279.042 296.896C279.045 296.894 279.044 296.895 279.046 296.892C279.056 296.883 279.043 296.895 279.053 296.886C279.066 296.873 279.055 296.884 279.067 296.872C279.076 296.864 279.116 296.825 279.125 296.817C279.128 296.814 279.129 296.813 279.132 296.81C279.132 296.81 279.133 296.81 279.133 296.809C279.133 296.809 279.133 296.809 279.133 296.809C279.133 296.809 279.134 296.809 279.134 296.809C279.134 296.809 279.135 296.808 279.135 296.808C279.135 296.808 279.135 296.807 279.135 296.807C279.135 296.807 279.135 296.807 279.136 296.807C279.147 296.796 279.126 296.816 279.137 296.805C279.138 296.805 279.138 296.805 279.138 296.804C279.141 296.801 279.136 296.806 279.139 296.803C279.151 296.792 279.141 296.801 279.153 296.79C279.162 296.781 279.159 296.785 279.168 296.776C279.169 296.775 279.181 296.764 279.182 296.762C279.191 296.754 279.188 296.757 279.196 296.749C279.202 296.744 279.205 296.74 279.211 296.735C279.231 296.716 279.219 296.727 279.239 296.708L278.825 296.274C278.825 296.274 278.825 296.274 278.825 296.274C278.824 296.274 278.824 296.274 278.824 296.275C278.824 296.275 278.824 296.275 278.824 296.275C278.824 296.275 278.823 296.275 278.823 296.275C278.823 296.276 278.823 296.276 278.823 296.276C278.823 296.276 278.822 296.276 278.822 296.276C278.822 296.277 278.822 296.277 278.821 296.277C278.821 296.277 278.821 296.278 278.821 296.278C278.804 296.294 278.836 296.263 278.82 296.279C278.815 296.284 278.823 296.276 278.818 296.281C278.815 296.284 278.819 296.279 278.816 296.282C278.812 296.286 278.818 296.28 278.814 296.284C278.814 296.285 278.814 296.284 278.813 296.285C278.813 296.285 278.813 296.286 278.812 296.286C278.812 296.286 278.811 296.287 278.811 296.287C278.803 296.295 278.812 296.287 278.803 296.294C278.799 296.299 278.801 296.297 278.796 296.301C278.793 296.304 278.796 296.302 278.793 296.305C278.791 296.307 278.791 296.306 278.789 296.308C278.779 296.318 278.792 296.305 278.782 296.315C278.769 296.327 278.781 296.316 278.768 296.329C278.759 296.337 278.719 296.375 278.71 296.383C278.707 296.386 278.706 296.387 278.703 296.39C278.703 296.39 278.702 296.391 278.702 296.391C278.702 296.391 278.702 296.391 278.702 296.391C278.702 296.392 278.702 296.392 278.701 296.392C278.701 296.392 278.701 296.393 278.7 296.393C278.7 296.393 278.7 296.393 278.7 296.393C278.7 296.393 278.7 296.393 278.7 296.394C278.689 296.404 278.709 296.385 278.698 296.395C278.697 296.396 278.697 296.396 278.697 296.396C278.694 296.399 278.699 296.394 278.696 296.397C278.684 296.409 278.694 296.399 278.682 296.411C278.673 296.419 278.676 296.416 278.667 296.424C278.666 296.426 278.654 296.437 278.653 296.438C278.644 296.447 278.648 296.443 278.639 296.452C278.633 296.457 278.63 296.46 278.624 296.466C278.604 296.485 278.616 296.474 278.596 296.493L279.01 296.927ZM279.032 296.791C279.073 296.791 279.094 296.791 279.111 296.793C279.125 296.795 279.13 296.797 279.132 296.798L279.391 296.257C279.244 296.187 279.101 296.191 279.032 296.191V296.791ZM279.1 296.78C297.914 308.823 319.937 315.883 342.217 319.211L342.306 318.618C320.088 315.299 298.149 308.262 279.423 296.275L279.1 296.78ZM342.219 319.212C355.237 321.077 368.444 321.589 381.609 321.113L381.587 320.514C368.452 320.988 355.281 320.477 342.304 318.618L342.219 319.212ZM381.609 321.113C394.668 320.638 408.065 318.48 420.415 316.215L420.307 315.625C407.962 317.889 394.6 320.04 381.587 320.514L381.609 321.113ZM420.408 316.216C445.74 312.231 471.732 304.553 494.478 291.932L494.187 291.408C471.517 303.986 445.596 311.647 420.315 315.623L420.408 316.216ZM494.475 291.934C517.334 279.533 537.755 261.969 550.862 239.817L550.346 239.511C537.305 261.55 516.975 279.045 494.189 291.406L494.475 291.934ZM550.862 239.817L552.62 236.859L552.105 236.553L550.346 239.511L550.862 239.817ZM552.519 236.45L549.537 234.624L549.224 235.136L552.206 236.962L552.519 236.45ZM229.903 150.151C229.903 136.819 229.942 124.422 231.697 111.626L231.103 111.545C229.341 124.387 229.303 136.824 229.303 150.151H229.903ZM231.697 111.626C232.079 108.817 232.499 106.044 232.958 103.234L232.366 103.137C231.906 105.952 231.486 108.73 231.103 111.545L231.697 111.626ZM232.449 103.397C239.548 110.544 246.073 118.272 251.758 126.51L252.252 126.169C246.545 117.9 239.996 110.144 232.874 102.974L232.449 103.397ZM251.758 126.51C258.78 136.682 264.273 147.725 270.167 158.585L270.695 158.299C264.814 147.465 259.298 136.376 252.252 126.169L251.758 126.51ZM270.697 158.302C264.97 147.397 259.682 136.234 252.751 125.881L252.253 126.215C259.16 136.532 264.423 147.647 270.165 158.581L270.697 158.302ZM252.754 125.884C247.011 117.033 240.502 108.583 233.265 100.718L232.823 101.124C240.036 108.964 246.525 117.386 252.25 126.211L252.754 125.884ZM233.339 100.974C234.943 91.9262 237.005 82.9553 239.79 74.169L239.219 73.9877C236.423 82.8045 234.356 91.8019 232.749 100.869L233.339 100.974ZM239.79 74.1695C247.197 50.9369 258.873 28.4525 276.832 11.1497L276.416 10.7177C258.364 28.1098 246.645 50.6922 239.219 73.9872L239.79 74.1695ZM276.43 11.1625C296.716 28.357 310.835 52.2274 319.576 77.3542L320.143 77.1571C311.376 51.9581 297.206 27.9861 276.818 10.7048L276.43 11.1625ZM319.575 77.3496C321.56 83.3662 323.239 89.4567 324.69 95.6214L325.274 95.4839C323.82 89.3045 322.136 83.197 320.145 77.1617L319.575 77.3496ZM324.766 95.3449C324.561 95.5586 324.346 95.7641 324.125 95.9748C323.906 96.1841 323.682 96.3986 323.466 96.6232L323.899 97.0386C324.104 96.825 324.319 96.6194 324.54 96.4087C324.759 96.1994 324.983 95.985 325.199 95.7604L324.766 95.3449ZM323.469 96.6201C314.622 105.584 306.888 115.461 300.15 125.885L300.654 126.21C307.372 115.817 315.081 105.973 323.896 97.0416L323.469 96.6201ZM300.152 125.881C293.221 136.234 287.896 147.396 282.207 158.303L282.739 158.58C288.441 147.648 293.744 136.532 300.651 126.215L300.152 125.881ZM282.736 158.585C288.631 147.724 294.085 136.682 301.145 126.511L300.652 126.169C293.568 136.376 288.089 147.466 282.209 158.299L282.736 158.585ZM301.145 126.511C308.205 116.376 316.372 106.97 325.454 98.5113L325.045 98.0722C315.932 106.559 307.737 115.998 300.652 126.168L301.145 126.511ZM325.457 98.5086C325.508 98.46 325.549 98.4289 325.614 98.3721C325.671 98.3221 325.742 98.257 325.802 98.1712L325.31 97.8279C325.293 97.8516 325.268 97.8778 325.22 97.9191C325.181 97.9537 325.106 98.0139 325.043 98.0748L325.457 98.5086ZM325.263 98.0636C326.712 104.697 327.791 111.961 328.555 118.711L329.151 118.644C328.386 111.881 327.304 104.595 325.849 97.9355L325.263 98.0636ZM328.556 118.724C330.973 134.105 330.417 148.897 330.034 159.855L330.634 159.876C331.016 148.923 331.576 134.076 329.149 118.631L328.556 118.724ZM330.634 159.866C330.634 145.889 331.017 138.129 330.06 124.055L329.462 124.096C330.416 138.143 330.034 145.868 330.034 159.866H330.634ZM330.06 124.05C329.448 117.006 328.262 103.916 326.998 96.9236L326.407 97.0303C327.666 103.989 328.85 117.048 329.462 124.101L330.06 124.05ZM326.902 97.2013C344.113 81.9254 364.788 70.0487 387.091 65.1681L386.962 64.582C364.538 69.489 343.774 81.424 326.503 96.7526L326.902 97.2013ZM386.745 64.9795C394.138 84.8948 394.714 106.606 391.356 127.424L391.948 127.52C395.318 106.631 394.747 84.8093 387.308 64.7707L386.745 64.9795ZM391.356 127.425C390.822 130.812 390.098 134.2 389.333 137.558L389.918 137.691C390.683 134.329 391.411 130.925 391.948 127.519L391.356 127.425ZM389.478 137.363C382.092 141.532 374.933 146.067 368.118 151.041L368.472 151.526C375.265 146.567 382.404 142.044 389.773 137.886L389.478 137.363ZM368.122 151.038C357.326 158.609 347.712 167.537 337.823 176.036L338.214 176.491C348.126 167.972 357.703 159.078 368.467 151.529L368.122 151.038ZM338.21 176.494C348.237 168.121 357.967 159.372 368.808 151.97L368.47 151.474C357.597 158.899 347.83 167.68 337.826 176.034L338.21 176.494ZM368.807 151.97C375.372 147.522 382.242 143.474 389.305 139.827L389.029 139.294C381.947 142.951 375.056 147.011 368.47 151.473L368.807 151.97ZM388.876 139.49C387.234 146.272 385.211 152.981 382.845 159.582L383.41 159.785C385.783 153.165 387.812 146.435 389.459 139.631L388.876 139.49ZM382.845 159.58C380.938 164.792 378.724 169.934 376.357 175.005L376.9 175.259C379.273 170.177 381.494 165.019 383.409 159.786L382.845 159.58ZM376.361 174.995L368.563 190.224L369.097 190.498L376.895 175.268L376.361 174.995ZM368.56 190.229C361.229 205.221 352.564 219.115 342.107 231.767L342.569 232.149C353.061 219.456 361.751 205.521 369.099 190.493L368.56 190.229ZM342.227 231.68C335.721 234.275 329.326 237.129 323.159 240.422L323.442 240.951C329.584 237.671 335.957 234.827 342.449 232.237L342.227 231.68ZM323.161 240.421C319.751 242.214 316.42 244.153 313.093 246.126L313.399 246.642C316.724 244.67 320.045 242.738 323.44 240.952L323.161 240.421ZM313.522 246.503C315.436 242.078 317.197 237.579 318.767 233.08L318.2 232.882C316.635 237.367 314.88 241.852 312.971 246.265L313.522 246.503ZM318.767 233.08C322.903 221.299 325.659 209.157 327.687 196.984L327.095 196.885C325.071 209.036 322.322 221.143 318.2 232.881L318.767 233.08ZM327.687 196.983C328.338 192.993 328.684 188.996 329.141 184.99L328.545 184.922C328.085 188.95 327.743 192.915 327.095 196.886L327.687 196.983ZM329.053 185.17C332.036 182.248 335.051 179.295 338.179 176.525L337.781 176.076C334.64 178.857 331.614 181.821 328.633 184.742L329.053 185.17ZM337.785 176.072C334.643 178.744 331.654 181.637 328.638 184.482L329.049 184.918C332.073 182.066 335.047 179.188 338.174 176.529L337.785 176.072ZM329.142 184.732C330.022 176.544 330.761 165.028 330.723 156.76L330.123 156.763C330.161 165.003 329.423 176.495 328.545 184.668L329.142 184.732ZM330.123 156.759C330.047 165.108 329.156 176.711 328.163 185.03L328.759 185.101C329.754 176.766 330.647 165.141 330.723 156.764L330.123 156.759ZM328.254 184.848C323.05 189.82 317.997 194.977 313.324 200.428L313.78 200.819C318.435 195.387 323.474 190.245 328.668 185.282L328.254 184.848ZM313.324 200.429C305.9 209.166 298.969 218.347 293.185 228.228L293.703 228.531C299.464 218.69 306.372 209.538 313.781 200.818L313.324 200.429ZM293.186 228.226C292.534 229.326 291.918 230.466 291.309 231.556L291.833 231.849C292.447 230.748 293.055 229.623 293.702 228.532L293.186 228.226ZM291.871 231.685C291.641 227.808 291.296 223.893 290.798 220.05L290.203 220.128C290.699 223.954 291.043 227.855 291.272 231.72L291.871 231.685ZM290.798 220.051C289.419 209.254 286.738 198.68 283.408 188.333L282.837 188.517C286.159 198.841 288.83 209.377 290.203 220.127L290.798 220.051ZM283.408 188.333C281.531 182.513 279.233 176.806 276.784 171.177L276.234 171.417C278.679 177.036 280.968 182.724 282.837 188.517L283.408 188.333ZM276.786 171.414C278.615 167.08 284.673 155.113 286.816 150.908L286.282 150.635C284.144 154.83 278.073 166.822 276.233 171.18L276.786 171.414ZM286.284 150.631C284.106 154.757 277.998 166.673 276.12 170.92L276.669 171.163C278.537 166.937 284.635 155.04 286.814 150.911L286.284 150.631ZM276.669 170.92C274.794 166.679 271.261 159.293 269.078 155.195L268.549 155.477C270.723 159.56 274.249 166.931 276.12 171.163L276.669 170.92ZM268.546 155.472C270.684 159.666 274.172 167.112 276.004 171.415L276.556 171.179C274.718 166.863 271.224 159.406 269.081 155.2L268.546 155.472ZM276.005 171.176C273.518 176.807 271.258 182.514 269.381 188.333L269.952 188.517C271.821 182.723 274.073 177.036 276.554 171.418L276.005 171.176ZM269.381 188.333C266.051 198.68 263.37 209.217 261.991 220.051L262.586 220.127C263.959 209.34 266.63 198.841 269.952 188.517L269.381 188.333ZM261.991 220.053C261.531 223.894 261.187 227.807 260.919 231.682L261.517 231.723C261.785 227.856 262.128 223.953 262.586 220.125L261.991 220.053ZM261.48 231.556C260.871 230.466 260.255 229.326 259.603 228.226L259.087 228.532C259.734 229.623 260.342 230.748 260.956 231.849L261.48 231.556ZM259.603 228.227C253.781 218.347 246.851 209.202 239.466 200.43L239.007 200.816C246.379 209.574 253.287 218.69 259.086 228.532L259.603 228.227ZM239.465 200.428C237.05 197.609 234.443 194.934 231.885 192.236L231.45 192.649C234.015 195.356 236.607 198.014 239.009 200.818L239.465 200.428ZM231.965 192.403C230.132 178.542 229.483 164.462 229.903 150.16L229.304 150.143C228.883 164.474 229.533 178.587 231.37 192.482L231.965 192.403ZM292.109 235.703C293.141 233.549 294.171 231.437 295.314 229.325L294.786 229.04C293.635 231.165 292.601 233.289 291.568 235.444L292.109 235.703ZM295.313 229.326C300.696 219.406 306.916 209.891 314.241 201.108L313.78 200.723C306.426 209.543 300.184 219.092 294.786 229.04L295.313 229.326ZM314.242 201.107C318.744 195.675 323.63 190.534 328.672 185.534L328.25 185.108C323.2 190.115 318.299 195.272 313.78 200.724L314.242 201.107ZM328.163 185.285C327.704 189.125 327.285 192.986 326.636 196.775L327.228 196.876C327.879 193.068 328.301 189.187 328.759 185.357L328.163 185.285ZM326.636 196.774C324.538 208.913 321.027 220.799 316.56 232.288L317.119 232.505C321.598 220.986 325.121 209.06 327.228 196.876L326.636 196.774ZM316.56 232.288C314.385 237.901 311.867 243.368 309.044 248.653L309.573 248.936C312.408 243.63 314.936 238.141 317.12 232.505L316.56 232.288ZM309.148 248.541C302.331 252.858 295.859 257.651 289.769 262.92L290.162 263.374C296.229 258.125 302.677 253.35 309.469 249.048L309.148 248.541ZM290.261 263.199C290.873 259.689 291.41 256.175 291.755 252.658L291.158 252.6C290.815 256.095 290.281 259.593 289.67 263.096L290.261 263.199ZM291.755 252.657C292.292 246.981 292.368 241.233 292.138 235.562L291.539 235.586C291.768 241.236 291.691 246.956 291.158 252.601L291.755 252.657ZM296.363 263.184C299.528 260.233 302.847 257.463 306.246 254.763L305.873 254.293C302.467 256.999 299.135 259.78 295.954 262.745L296.363 263.184ZM305.801 254.376C303.7 257.952 301.526 261.487 299.162 264.875L299.654 265.218C302.03 261.812 304.214 258.262 306.318 254.68L305.801 254.376ZM299.161 264.875C297.599 267.132 295.921 269.318 294.24 271.472L294.713 271.841C296.395 269.686 298.082 267.489 299.654 265.217L299.161 264.875ZM294.339 271.39C291.938 272.628 289.497 273.757 287.016 274.851L287.258 275.4C289.746 274.303 292.198 273.169 294.614 271.923L294.339 271.39ZM287.425 275.208C287.807 273.859 288.191 272.539 288.536 271.183L287.954 271.035C287.612 272.381 287.231 273.69 286.848 275.044L287.425 275.208ZM288.467 271.311C291.026 268.501 293.62 265.768 296.364 263.183L295.953 262.746C293.192 265.347 290.587 268.092 288.023 270.907L288.467 271.311ZM311.778 250.608C315.824 247.691 320.02 244.922 324.366 242.445L324.069 241.923C319.7 244.413 315.486 247.195 311.427 250.121L311.778 250.608ZM324.368 242.444C329.864 239.271 335.513 236.354 341.315 233.729L341.067 233.182C335.247 235.816 329.581 238.742 324.068 241.924L324.368 242.444ZM340.962 233.262C337.412 237.456 333.672 241.539 329.703 245.44L330.124 245.868C334.107 241.952 337.86 237.855 341.42 233.649L340.962 233.262ZM329.701 245.442C321.651 253.534 312.571 260.822 302.655 266.835L302.966 267.348C312.927 261.308 322.044 253.989 330.126 245.865L329.701 245.442ZM303.068 267.245C306.322 261.794 309.271 256.197 311.875 250.489L311.33 250.24C308.735 255.927 305.796 261.505 302.552 266.938L303.068 267.245ZM249.789 252.678C245.554 244.149 242.119 235.254 239.41 226.211L238.835 226.384C241.553 235.456 245 244.383 249.252 252.945L249.789 252.678ZM239.409 226.209C236.012 215.269 233.645 204.22 232.118 193.023L231.523 193.104C233.055 204.331 235.428 215.413 238.836 226.386L239.409 226.209ZM231.601 193.268C234.014 195.865 236.451 198.412 238.66 201.141L239.126 200.763C236.901 198.014 234.444 195.447 232.04 192.859L231.601 193.268ZM238.662 201.144C245.949 209.928 252.208 219.443 257.59 229.362L258.118 229.076C252.719 219.128 246.439 209.579 239.124 200.76L238.662 201.144ZM257.591 229.364C258.733 231.437 259.762 233.584 260.795 235.74L261.336 235.481C260.304 233.327 259.268 231.165 258.117 229.074L257.591 229.364ZM260.765 235.598C260.536 241.306 260.612 247.017 261.149 252.767L261.746 252.711C261.212 246.993 261.136 241.309 261.365 235.622L260.765 235.598ZM261.149 252.765C261.455 256.283 261.992 259.799 262.643 263.311L263.233 263.202C262.584 259.702 262.051 256.206 261.746 252.713L261.149 252.765ZM263.136 263.031C258.846 259.262 254.364 255.785 249.69 252.565L249.35 253.059C254.005 256.266 258.468 259.728 262.74 263.482L263.136 263.031ZM264.368 271.146C264.713 272.502 265.096 273.857 265.479 275.173L266.055 275.006C265.673 273.692 265.292 272.345 264.949 270.998L264.368 271.146ZM265.887 274.814C264.63 274.268 263.413 273.687 262.147 273.101L261.895 273.645C263.152 274.228 264.382 274.815 265.648 275.365L265.887 274.814ZM262.263 273.196C259.135 268.895 256.236 264.45 253.643 259.823L253.12 260.116C255.726 264.766 258.638 269.232 261.778 273.549L262.263 273.196ZM253.182 260.194C254.303 261.191 255.472 262.162 256.542 263.149L256.949 262.707C255.878 261.721 254.676 260.72 253.581 259.746L253.182 260.194ZM256.538 263.145C259.285 265.769 261.917 268.503 264.437 271.274L264.881 270.87C262.354 268.091 259.711 265.346 256.953 262.711L256.538 263.145ZM245.139 263.446C237.241 258.125 229.878 252.074 223.241 245.405L222.816 245.829C229.481 252.526 236.875 258.601 244.803 263.944L245.139 263.446ZM223.239 245.403C219.27 241.503 215.53 237.419 211.98 233.225L211.522 233.613C215.082 237.819 218.835 241.916 222.818 245.831L223.239 245.403ZM211.626 233.692C217.428 236.354 223.078 239.271 228.576 242.408L228.873 241.887C223.361 238.742 217.695 235.816 211.876 233.146L211.626 233.692ZM228.574 242.407C230.709 243.646 232.808 244.958 234.911 246.273L235.229 245.764C233.127 244.45 231.021 243.133 228.875 241.888L228.574 242.407ZM234.799 246.148C237.71 252.259 241.043 258.187 244.719 263.858L245.223 263.532C241.56 257.882 238.24 251.977 235.341 245.89L234.799 246.148ZM165.813 65.2412C185.905 69.6483 204.748 79.7034 220.851 92.827L221.23 92.3619C205.068 79.1905 186.142 69.086 165.942 64.6551L165.813 65.2412ZM220.748 92.5268C216.345 111.546 214.776 131.184 215.274 150.159L215.874 150.144C215.377 131.211 216.943 111.625 221.333 92.6621L220.748 92.5268ZM215.274 150.15C215.236 159.066 215.427 168.498 216.192 177.822L216.79 177.773C216.027 168.472 215.836 159.059 215.874 150.153L215.274 150.15ZM216.69 177.573C216.428 177.34 216.164 177.089 215.896 176.832C215.629 176.577 215.357 176.318 215.085 176.076L214.687 176.525C214.949 176.758 215.213 177.01 215.481 177.266C215.748 177.521 216.02 177.78 216.292 178.022L216.69 177.573ZM214.694 176.531C215.258 176.998 215.727 177.519 216.284 178.051L216.698 177.617C216.185 177.127 215.66 176.552 215.077 176.069L214.694 176.531ZM216.192 177.859C216.537 182.064 216.996 186.271 217.648 190.408L218.24 190.314C217.592 186.197 217.134 182.004 216.79 177.81L216.192 177.859ZM217.648 190.408C219.753 203.79 222.968 217.067 227.678 229.871L228.241 229.663C223.547 216.903 220.34 203.665 218.24 190.314L217.648 190.408ZM227.679 229.874C229.364 234.3 231.24 238.689 233.269 243.041L233.813 242.788C231.789 238.448 229.919 234.072 228.24 229.66L227.679 229.874ZM233.688 242.653C232.396 241.927 231.085 241.154 229.742 240.457L229.465 240.99C230.797 241.68 232.087 242.441 233.394 243.176L233.688 242.653ZM229.745 240.459C223.578 237.165 217.183 234.312 210.677 231.716L210.455 232.273C216.946 234.864 223.32 237.708 229.462 240.988L229.745 240.459ZM210.797 231.803C200.34 219.188 191.713 205.294 184.343 190.265L183.805 190.53C191.191 205.594 199.843 219.529 210.335 232.186L210.797 231.803ZM184.341 190.261L176.542 175.031L176.008 175.305L183.807 190.534L184.341 190.261ZM176.547 175.041C174.18 169.971 172.004 164.866 170.058 159.616L169.495 159.824C171.448 165.092 173.631 170.213 176.004 175.295L176.547 175.041ZM170.059 159.619C167.692 153.018 165.669 146.308 164.028 139.526L163.445 139.667C165.091 146.471 167.121 153.201 169.494 159.821L170.059 159.619ZM163.599 139.863C170.662 143.511 177.532 147.522 184.096 152.006L184.434 151.511C177.847 147.011 170.956 142.987 163.874 139.33L163.599 139.863ZM184.096 152.006C194.937 159.409 204.628 168.121 214.693 176.531L215.078 176.07C205.035 167.68 195.307 158.935 184.434 151.511L184.096 152.006ZM215.081 176.073C205.192 167.574 195.578 158.646 184.781 151.074L184.437 151.566C195.201 159.114 204.777 168.008 214.69 176.528L215.081 176.073ZM184.785 151.077C177.971 146.14 170.813 141.569 163.425 137.4L163.13 137.923C170.499 142.081 177.638 146.64 184.433 151.563L184.785 151.077ZM163.57 137.595C162.806 134.237 162.082 130.848 161.548 127.462L160.955 127.555C161.492 130.962 162.22 134.366 162.985 137.728L163.57 137.595ZM161.548 127.461C158.19 106.68 158.803 84.9679 166.159 65.0521L165.596 64.8442C158.195 84.8822 157.586 106.703 160.956 127.556L161.548 127.461ZM209.43 307.513C184.694 309.811 160.183 307.587 135.509 302.442L135.387 303.029C160.104 308.183 184.677 310.415 209.485 308.111L209.43 307.513ZM135.495 302.44C110.556 298.462 87.037 291.677 64.973 280.846L64.7086 281.385C86.8361 292.247 110.414 299.047 135.401 303.032L135.495 302.44ZM64.9743 280.847C44.204 270.524 24.8292 256.71 11.4108 238.355L10.9265 238.709C24.4206 257.167 43.8854 271.036 64.7072 281.384L64.9743 280.847ZM11.3457 238.774C31.1717 224.277 56.1966 216.219 81.5081 212.973L81.4318 212.378C56.053 215.632 30.9227 223.716 10.9916 238.29L11.3457 238.774ZM81.504 212.973C88.5276 212.171 95.59 211.733 102.653 211.624L102.644 211.024C95.5621 211.134 88.4801 211.573 81.4359 212.377L81.504 212.973ZM102.413 211.51C112.52 224.312 124.311 235.904 136.711 245.996L137.09 245.53C124.719 235.463 112.96 223.901 102.884 211.138L102.413 211.51ZM136.705 245.991C145.882 253.881 156.065 262.22 166.827 268.953L167.145 268.444C156.423 261.737 146.269 253.422 137.096 245.536L136.705 245.991ZM166.827 268.953C177.659 275.717 189.106 281.679 201.13 286.326L201.346 285.766C189.363 281.136 177.95 275.192 167.145 268.444L166.827 268.953ZM201.131 286.326C218.475 292.946 237.087 297.155 255.82 297.631L255.835 297.031C237.181 296.557 218.636 292.366 201.345 285.765L201.131 286.326ZM255.717 297.052C241.069 302.883 225.235 306.201 209.432 307.513L209.482 308.111C225.333 306.794 241.227 303.466 255.939 297.609L255.717 297.052ZM206.102 275.583C184.002 265.628 164.532 251.952 146.506 235.644L146.103 236.088C164.165 252.43 183.687 266.144 205.855 276.13L206.102 275.583ZM146.494 235.634C137.291 228.118 128.739 220.166 120.951 211.705L120.509 212.111C128.319 220.596 136.892 228.567 146.115 236.098L146.494 235.634ZM120.704 212.207C120.922 212.226 121.139 212.235 121.343 212.244C121.549 212.254 121.743 212.263 121.925 212.28L121.982 211.683C121.782 211.664 121.574 211.654 121.369 211.645C121.163 211.636 120.959 211.627 120.756 211.609L120.704 212.207ZM121.931 212.28C135.407 213.302 148.687 216.036 162.043 218.303L162.143 217.711C148.815 215.45 135.489 212.706 121.976 211.682L121.931 212.28ZM162.147 217.712C148.858 215.268 135.608 212.342 122.056 211.135L122.003 211.732C135.518 212.936 148.721 215.853 162.039 218.302L162.147 217.712ZM122.063 211.135C121.404 211.061 120.746 211.024 120.136 210.988L120.101 211.587C120.714 211.624 121.356 211.66 121.996 211.732L122.063 211.135ZM120.339 211.084C112.361 202.405 105.185 193.142 98.8492 183.188L98.343 183.51C104.699 193.496 111.897 202.786 119.898 211.49L120.339 211.084ZM98.8498 183.189C86.978 164.371 78.2866 143.274 76.9527 121.282L76.3538 121.318C77.6957 143.443 86.4364 164.637 98.3424 183.509L98.8498 183.189ZM76.6877 121.598C100.938 118.793 126.194 123.783 149.212 133.118L149.437 132.562C126.352 123.2 100.994 118.183 76.6187 121.002L76.6877 121.598ZM149.027 132.88C152.015 155.313 160.364 177.226 171.274 196.571L171.796 196.276C160.916 176.982 152.598 155.143 149.622 132.801L149.027 132.88ZM171.269 196.563C176.088 205.77 181.601 215.609 188.036 224.501L188.522 224.149C182.112 215.293 176.616 205.484 171.801 196.284L171.269 196.563ZM188.364 224.038C179.75 221.478 165.779 218.299 156.902 216.727L156.797 217.318C165.657 218.887 179.605 222.06 188.193 224.613L188.364 224.038ZM156.793 217.317C165.768 219.032 179.831 222.388 188.534 225.087L188.712 224.514C179.983 221.807 165.897 218.446 156.906 216.728L156.793 217.317ZM188.381 224.977C188.645 225.338 188.891 225.699 189.141 226.061C189.389 226.422 189.642 226.784 189.915 227.138L190.39 226.772C190.127 226.432 189.883 226.081 189.635 225.721C189.388 225.362 189.136 224.992 188.865 224.623L188.381 224.977ZM189.913 227.136C197.225 236.792 205.458 245.864 214.65 253.914L215.045 253.462C205.888 245.443 197.682 236.401 190.391 226.774L189.913 227.136ZM214.651 253.915C227.06 264.635 241.308 273.674 256.747 279.933L256.973 279.377C241.6 273.145 227.407 264.142 215.044 253.461L214.651 253.915ZM256.633 279.85C259.849 283.581 263.22 287.205 266.862 290.611L267.272 290.173C263.65 286.785 260.294 283.178 257.087 279.459L256.633 279.85ZM267.068 290.092C245.98 289.982 225.073 284.335 206.104 275.584L205.853 276.129C224.882 284.908 245.874 290.582 267.065 290.692L267.068 290.092ZM270.065 269.515C268.159 263.869 266.672 258.077 265.681 252.178L265.089 252.277C266.086 258.21 267.581 264.032 269.497 269.707L270.065 269.515ZM265.681 252.18C265.185 249.047 264.804 245.912 264.498 242.74L263.901 242.797C264.207 245.979 264.59 249.126 265.089 252.274L265.681 252.18ZM263.922 242.881C266.249 248.64 268.233 254.544 269.797 260.484L270.377 260.332C268.806 254.366 266.814 248.437 264.478 242.656L263.922 242.881ZM269.796 260.481C270.787 264.415 271.55 268.386 272.161 272.359L272.754 272.268C272.141 268.28 271.374 264.29 270.378 260.335L269.796 260.481ZM272.682 272.115C271.831 271.154 270.904 270.269 269.988 269.394L269.574 269.828C270.493 270.706 271.401 271.574 272.232 272.513L272.682 272.115ZM276.761 267.709C273.849 256.616 269.405 246.003 264.006 235.907L263.477 236.19C268.858 246.253 273.283 256.823 276.181 267.861L276.761 267.709ZM264.041 236.036C263.812 230.79 263.926 225.508 264.422 220.263L263.825 220.207C263.326 225.48 263.211 230.79 263.441 236.062L264.041 236.036ZM264.422 220.262C265.376 209.579 267.284 198.936 270.488 188.624L269.915 188.446C266.697 198.805 264.782 209.49 263.825 220.208L264.422 220.262ZM270.489 188.622C272.243 182.864 274.38 177.214 276.747 171.633L276.195 171.399C273.822 176.994 271.677 182.665 269.915 188.447L270.489 188.622ZM276.194 171.632C278.523 177.213 280.661 182.865 282.454 188.624L283.027 188.446C281.227 182.664 279.082 176.994 276.748 171.401L276.194 171.632ZM282.454 188.624C285.658 198.936 287.566 209.579 288.52 220.262L289.117 220.208C288.16 209.49 286.245 198.805 283.027 188.446L282.454 188.624ZM288.52 220.263C289.016 225.508 289.13 230.79 288.901 236.036L289.501 236.062C289.731 230.79 289.616 225.48 289.117 220.207L288.52 220.263ZM288.937 235.907C283.537 245.967 279.093 256.617 276.181 267.709L276.761 267.861C279.659 256.822 284.084 246.217 289.465 236.19L288.937 235.907ZM280.705 272.323C281.315 268.349 282.078 264.378 283.07 260.445L282.488 260.298C281.491 264.253 280.725 268.244 280.112 272.232L280.705 272.323ZM283.069 260.448C284.633 254.508 286.616 248.604 288.944 242.844L288.388 242.619C286.051 248.401 284.059 254.329 282.488 260.295L283.069 260.448ZM288.367 242.703C288.061 245.879 287.718 249.011 287.185 252.14L287.776 252.241C288.313 249.089 288.658 245.94 288.964 242.761L288.367 242.703ZM287.185 252.141C286.194 258.041 284.707 263.832 282.8 269.479L283.369 269.671C285.285 263.996 286.78 258.174 287.776 252.241L287.185 252.141ZM282.864 269.372C282.449 269.822 282.004 270.265 281.55 270.712C281.098 271.158 280.635 271.609 280.192 272.069L280.625 272.485C281.061 272.033 281.516 271.589 281.971 271.14C282.425 270.692 282.879 270.24 283.305 269.778L282.864 269.372ZM293.436 280.994C309.91 274.735 325.078 265.294 338.215 253.915L337.822 253.461C324.733 264.799 309.625 274.202 293.223 280.433L293.436 280.994ZM338.216 253.914C347.408 245.864 355.64 236.792 362.953 227.136L362.474 226.774C355.183 236.401 346.978 245.443 337.82 253.462L338.216 253.914ZM362.951 227.138C363.225 226.783 363.478 226.41 363.726 226.046C363.975 225.68 364.219 225.322 364.48 224.983L364.005 224.617C363.731 224.972 363.478 225.345 363.23 225.709C362.981 226.075 362.737 226.433 362.476 226.772L362.951 227.138ZM364.332 225.086C373.041 222.35 381.86 219.979 390.829 218.265L390.716 217.676C381.719 219.395 372.876 221.772 364.153 224.514L364.332 225.086ZM390.72 217.675C381.837 219.248 373.11 221.479 364.501 224.038L364.672 224.613C373.266 222.059 381.971 219.834 390.825 218.266L390.72 217.675ZM364.83 224.501C371.265 215.573 376.777 205.77 381.596 196.563L381.065 196.284C376.25 205.483 370.753 215.256 364.343 224.15L364.83 224.501ZM381.592 196.571C392.501 177.225 400.85 155.277 403.838 132.88L403.243 132.801C400.268 155.106 391.95 176.982 381.069 196.276L381.592 196.571ZM403.654 133.118C426.672 123.783 451.965 118.793 476.178 121.598L476.247 121.002C451.91 118.183 426.513 123.2 403.428 132.562L403.654 133.118ZM475.913 121.282C474.579 143.238 465.887 164.371 454.016 183.189L454.523 183.509C466.429 164.637 475.17 143.406 476.512 121.318L475.913 121.282ZM454.016 183.188C447.681 193.142 440.505 202.368 432.526 211.085L432.968 211.49C440.969 202.75 448.167 193.496 454.522 183.51L454.016 183.188ZM432.714 210.989C432.073 211.061 431.432 211.097 430.818 211.134L430.853 211.733C431.463 211.697 432.121 211.66 432.781 211.586L432.714 210.989ZM430.809 211.135C417.258 212.342 404.008 215.268 390.718 217.712L390.827 218.302C404.144 215.853 417.348 212.936 430.862 211.732L430.809 211.135ZM390.823 218.303C404.178 216.036 417.459 213.302 430.935 212.28L430.889 211.682C417.377 212.706 404.05 215.45 390.723 217.711L390.823 218.303ZM430.938 212.28C431.141 212.263 431.345 212.254 431.551 212.244C431.756 212.235 431.964 212.226 432.164 212.207L432.107 211.61C431.925 211.627 431.732 211.636 431.525 211.645C431.321 211.654 431.104 211.664 430.886 211.682L430.938 212.28ZM431.915 211.705C424.089 220.167 415.574 228.119 406.371 235.634L406.751 236.098C415.974 228.567 424.509 220.596 432.356 212.112L431.915 211.705ZM406.36 235.644C388.334 251.952 368.863 265.628 346.764 275.583L347.01 276.13C369.178 266.144 388.701 252.43 406.762 236.088L406.36 235.644ZM346.761 275.584C327.563 284.445 306.389 290.128 285.035 290.092L285.034 290.692C306.494 290.728 327.754 285.017 347.013 276.129L346.761 275.584ZM285.25 290.599C288.241 287.486 290.963 284.227 293.566 280.898L293.093 280.529C290.498 283.847 287.79 287.089 284.818 290.184L285.25 290.599ZM487.931 280.883C465.867 291.714 442.386 298.499 417.409 302.476L417.503 303.069C442.528 299.084 466.068 292.283 488.195 281.421L487.931 280.883ZM417.395 302.479C392.722 307.623 368.21 309.811 343.474 307.55L343.419 308.147C368.227 310.415 392.799 308.22 417.517 303.066L417.395 302.479ZM343.471 307.55C327.669 306.237 311.834 302.919 297.148 297.125L296.928 297.683C311.677 303.502 327.571 306.831 343.422 308.148L343.471 307.55ZM297.045 297.704C315.778 297.264 334.391 293.019 351.734 286.399L351.52 285.839C334.229 292.439 315.684 296.667 297.031 297.104L297.045 297.704ZM351.736 286.398C363.759 281.716 375.206 275.791 386.038 269.026L385.721 268.517C374.916 275.265 363.502 281.172 351.518 285.839L351.736 286.398ZM386.039 269.026C396.801 262.293 406.984 253.954 416.161 246.064L415.769 245.609C406.597 253.495 396.442 261.81 385.72 268.517L386.039 269.026ZM416.154 246.069C428.593 235.977 440.345 224.385 450.453 211.583L449.982 211.211C439.905 223.974 428.185 235.536 415.776 245.603L416.154 246.069ZM450.213 211.697C457.276 211.806 464.338 212.244 471.362 213.046L471.43 212.45C464.385 211.646 457.303 211.207 450.222 211.097L450.213 211.697ZM471.357 213.046C496.669 216.292 521.694 224.35 541.52 238.847L541.874 238.363C521.943 223.789 496.813 215.705 471.434 212.451L471.357 213.046ZM541.455 238.428C528.074 256.746 508.7 270.561 487.929 280.883L488.197 281.421C509.018 271.072 528.483 257.204 541.939 238.782L541.455 238.428Z" fill="#49C5B6" mask="url(#path-1-outside-1_1_1295)"/>
</g>
</svg>
