<svg width="172" height="394" viewBox="0 0 172 394" fill="none" xmlns="http://www.w3.org/2000/svg">
<circle cx="2" cy="2" r="2" fill="#49C5B6"/>
<circle cx="17" cy="2" r="2" fill="#49C5B6"/>
<circle cx="41" cy="2" r="2" fill="#49C5B6"/>
<circle cx="56" cy="2" r="2" fill="#49C5B6"/>
<circle cx="71" cy="2" r="2" fill="#49C5B6"/>
<circle cx="86" cy="2" r="2" fill="#49C5B6"/>
<circle cx="101" cy="2" r="2" fill="#49C5B6"/>
<circle cx="116" cy="2" r="2" fill="#49C5B6"/>
<circle cx="131" cy="2" r="2" fill="#49C5B6"/>
<circle cx="146" cy="2" r="2" fill="#49C5B6"/>
<circle cx="170" cy="2" r="2" fill="#49C5B6"/>
<circle cx="2" cy="17" r="2" fill="#49C5B6"/>
<circle cx="17" cy="17" r="2" fill="#49C5B6"/>
<circle cx="41" cy="17" r="2" fill="#49C5B6"/>
<circle cx="56" cy="17" r="2" fill="#49C5B6"/>
<circle cx="71" cy="17" r="2" fill="#49C5B6"/>
<circle cx="86" cy="17" r="2" fill="#49C5B6"/>
<circle cx="101" cy="17" r="2" fill="#49C5B6"/>
<circle cx="116" cy="17" r="2" fill="#49C5B6"/>
<circle cx="131" cy="17" r="2" fill="#49C5B6"/>
<circle cx="146" cy="17" r="2" fill="#49C5B6"/>
<circle cx="170" cy="17" r="2" fill="#49C5B6"/>
<circle cx="2" cy="32" r="2" fill="#49C5B6"/>
<circle cx="17" cy="32" r="2" fill="#49C5B6"/>
<circle cx="41" cy="32" r="2" fill="#49C5B6"/>
<circle cx="56" cy="32" r="2" fill="#49C5B6"/>
<circle cx="71" cy="32" r="2" fill="#49C5B6"/>
<circle cx="86" cy="32" r="2" fill="#49C5B6"/>
<circle cx="101" cy="32" r="2" fill="#49C5B6"/>
<circle cx="116" cy="32" r="2" fill="#49C5B6"/>
<circle cx="131" cy="32" r="2" fill="#49C5B6"/>
<circle cx="146" cy="32" r="2" fill="#49C5B6"/>
<circle cx="170" cy="32" r="2" fill="#49C5B6"/>
<circle cx="2" cy="47" r="2" fill="#49C5B6"/>
<circle cx="17" cy="47" r="2" fill="#49C5B6"/>
<circle cx="41" cy="47" r="2" fill="#49C5B6"/>
<circle cx="56" cy="47" r="2" fill="#49C5B6"/>
<circle cx="71" cy="47" r="2" fill="#49C5B6"/>
<circle cx="86" cy="47" r="2" fill="#49C5B6"/>
<circle cx="101" cy="47" r="2" fill="#49C5B6"/>
<circle cx="116" cy="47" r="2" fill="#49C5B6"/>
<circle cx="131" cy="47" r="2" fill="#49C5B6"/>
<circle cx="146" cy="47" r="2" fill="#49C5B6"/>
<circle cx="170" cy="47" r="2" fill="#49C5B6"/>
<circle cx="2" cy="62" r="2" fill="#49C5B6"/>
<circle cx="17" cy="62" r="2" fill="#49C5B6"/>
<circle cx="41" cy="62" r="2" fill="#49C5B6"/>
<circle cx="56" cy="62" r="2" fill="#49C5B6"/>
<circle cx="71" cy="62" r="2" fill="#49C5B6"/>
<circle cx="86" cy="62" r="2" fill="#49C5B6"/>
<circle cx="101" cy="62" r="2" fill="#49C5B6"/>
<circle cx="116" cy="62" r="2" fill="#49C5B6"/>
<circle cx="131" cy="62" r="2" fill="#49C5B6"/>
<circle cx="146" cy="62" r="2" fill="#49C5B6"/>
<circle cx="170" cy="62" r="2" fill="#49C5B6"/>
<circle cx="2" cy="77" r="2" fill="#49C5B6"/>
<circle cx="17" cy="77" r="2" fill="#49C5B6"/>
<circle cx="41" cy="77" r="2" fill="#49C5B6"/>
<circle cx="56" cy="77" r="2" fill="#49C5B6"/>
<circle cx="71" cy="77" r="2" fill="#49C5B6"/>
<circle cx="86" cy="77" r="2" fill="#49C5B6"/>
<circle cx="101" cy="77" r="2" fill="#49C5B6"/>
<circle cx="116" cy="77" r="2" fill="#49C5B6"/>
<circle cx="131" cy="77" r="2" fill="#49C5B6"/>
<circle cx="146" cy="77" r="2" fill="#49C5B6"/>
<circle cx="170" cy="77" r="2" fill="#49C5B6"/>
<circle cx="2" cy="92" r="2" fill="#49C5B6"/>
<circle cx="17" cy="92" r="2" fill="#49C5B6"/>
<circle cx="41" cy="92" r="2" fill="#49C5B6"/>
<circle cx="56" cy="92" r="2" fill="#49C5B6"/>
<circle cx="71" cy="92" r="2" fill="#49C5B6"/>
<circle cx="86" cy="92" r="2" fill="#49C5B6"/>
<circle cx="101" cy="92" r="2" fill="#49C5B6"/>
<circle cx="116" cy="92" r="2" fill="#49C5B6"/>
<circle cx="131" cy="92" r="2" fill="#49C5B6"/>
<circle cx="146" cy="92" r="2" fill="#49C5B6"/>
<circle cx="170" cy="92" r="2" fill="#49C5B6"/>
<circle cx="2" cy="107" r="2" fill="#49C5B6"/>
<circle cx="17" cy="107" r="2" fill="#49C5B6"/>
<circle cx="41" cy="107" r="2" fill="#49C5B6"/>
<circle cx="56" cy="107" r="2" fill="#49C5B6"/>
<circle cx="71" cy="107" r="2" fill="#49C5B6"/>
<circle cx="86" cy="107" r="2" fill="#49C5B6"/>
<circle cx="101" cy="107" r="2" fill="#49C5B6"/>
<circle cx="116" cy="107" r="2" fill="#49C5B6"/>
<circle cx="131" cy="107" r="2" fill="#49C5B6"/>
<circle cx="146" cy="107" r="2" fill="#49C5B6"/>
<circle cx="170" cy="107" r="2" fill="#49C5B6"/>
<circle cx="2" cy="122" r="2" fill="#49C5B6"/>
<circle cx="17" cy="122" r="2" fill="#49C5B6"/>
<circle cx="41" cy="122" r="2" fill="#49C5B6"/>
<circle cx="56" cy="122" r="2" fill="#49C5B6"/>
<circle cx="71" cy="122" r="2" fill="#49C5B6"/>
<circle cx="86" cy="122" r="2" fill="#49C5B6"/>
<circle cx="101" cy="122" r="2" fill="#49C5B6"/>
<circle cx="116" cy="122" r="2" fill="#49C5B6"/>
<circle cx="131" cy="122" r="2" fill="#49C5B6"/>
<circle cx="146" cy="122" r="2" fill="#49C5B6"/>
<circle cx="170" cy="122" r="2" fill="#49C5B6"/>
<circle cx="2" cy="137" r="2" fill="#49C5B6"/>
<circle cx="17" cy="137" r="2" fill="#49C5B6"/>
<circle cx="41" cy="137" r="2" fill="#49C5B6"/>
<circle cx="56" cy="137" r="2" fill="#49C5B6"/>
<circle cx="71" cy="137" r="2" fill="#49C5B6"/>
<circle cx="86" cy="137" r="2" fill="#49C5B6"/>
<circle cx="101" cy="137" r="2" fill="#49C5B6"/>
<circle cx="116" cy="137" r="2" fill="#49C5B6"/>
<circle cx="131" cy="137" r="2" fill="#49C5B6"/>
<circle cx="146" cy="137" r="2" fill="#49C5B6"/>
<circle cx="170" cy="137" r="2" fill="#49C5B6"/>
<circle cx="2" cy="152" r="2" fill="#49C5B6"/>
<circle cx="17" cy="152" r="2" fill="#49C5B6"/>
<circle cx="41" cy="152" r="2" fill="#49C5B6"/>
<circle cx="56" cy="152" r="2" fill="#49C5B6"/>
<circle cx="71" cy="152" r="2" fill="#49C5B6"/>
<circle cx="86" cy="152" r="2" fill="#49C5B6"/>
<circle cx="101" cy="152" r="2" fill="#49C5B6"/>
<circle cx="116" cy="152" r="2" fill="#49C5B6"/>
<circle cx="131" cy="152" r="2" fill="#49C5B6"/>
<circle cx="146" cy="152" r="2" fill="#49C5B6"/>
<circle cx="170" cy="152" r="2" fill="#49C5B6"/>
<circle cx="2" cy="167" r="2" fill="#49C5B6"/>
<circle cx="17" cy="167" r="2" fill="#49C5B6"/>
<circle cx="41" cy="167" r="2" fill="#49C5B6"/>
<circle cx="56" cy="167" r="2" fill="#49C5B6"/>
<circle cx="71" cy="167" r="2" fill="#49C5B6"/>
<circle cx="86" cy="167" r="2" fill="#49C5B6"/>
<circle cx="101" cy="167" r="2" fill="#49C5B6"/>
<circle cx="116" cy="167" r="2" fill="#49C5B6"/>
<circle cx="131" cy="167" r="2" fill="#49C5B6"/>
<circle cx="146" cy="167" r="2" fill="#49C5B6"/>
<circle cx="170" cy="167" r="2" fill="#49C5B6"/>
<circle cx="2" cy="182" r="2" fill="#49C5B6"/>
<circle cx="17" cy="182" r="2" fill="#49C5B6"/>
<circle cx="41" cy="182" r="2" fill="#49C5B6"/>
<circle cx="56" cy="182" r="2" fill="#49C5B6"/>
<circle cx="71" cy="182" r="2" fill="#49C5B6"/>
<circle cx="86" cy="182" r="2" fill="#49C5B6"/>
<circle cx="101" cy="182" r="2" fill="#49C5B6"/>
<circle cx="116" cy="182" r="2" fill="#49C5B6"/>
<circle cx="131" cy="182" r="2" fill="#49C5B6"/>
<circle cx="146" cy="182" r="2" fill="#49C5B6"/>
<circle cx="170" cy="182" r="2" fill="#49C5B6"/>
<circle cx="2" cy="197" r="2" fill="#49C5B6"/>
<circle cx="17" cy="197" r="2" fill="#49C5B6"/>
<circle cx="41" cy="197" r="2" fill="#49C5B6"/>
<circle cx="56" cy="197" r="2" fill="#49C5B6"/>
<circle cx="71" cy="197" r="2" fill="#49C5B6"/>
<circle cx="86" cy="197" r="2" fill="#49C5B6"/>
<circle cx="101" cy="197" r="2" fill="#49C5B6"/>
<circle cx="116" cy="197" r="2" fill="#49C5B6"/>
<circle cx="131" cy="197" r="2" fill="#49C5B6"/>
<circle cx="146" cy="197" r="2" fill="#49C5B6"/>
<circle cx="170" cy="197" r="2" fill="#49C5B6"/>
<circle cx="2" cy="212" r="2" fill="#49C5B6"/>
<circle cx="17" cy="212" r="2" fill="#49C5B6"/>
<circle cx="41" cy="212" r="2" fill="#49C5B6"/>
<circle cx="56" cy="212" r="2" fill="#49C5B6"/>
<circle cx="71" cy="212" r="2" fill="#49C5B6"/>
<circle cx="86" cy="212" r="2" fill="#49C5B6"/>
<circle cx="101" cy="212" r="2" fill="#49C5B6"/>
<circle cx="116" cy="212" r="2" fill="#49C5B6"/>
<circle cx="131" cy="212" r="2" fill="#49C5B6"/>
<circle cx="146" cy="212" r="2" fill="#49C5B6"/>
<circle cx="170" cy="212" r="2" fill="#49C5B6"/>
<circle cx="2" cy="227" r="2" fill="#49C5B6"/>
<circle cx="17" cy="227" r="2" fill="#49C5B6"/>
<circle cx="41" cy="227" r="2" fill="#49C5B6"/>
<circle cx="56" cy="227" r="2" fill="#49C5B6"/>
<circle cx="71" cy="227" r="2" fill="#49C5B6"/>
<circle cx="86" cy="227" r="2" fill="#49C5B6"/>
<circle cx="101" cy="227" r="2" fill="#49C5B6"/>
<circle cx="116" cy="227" r="2" fill="#49C5B6"/>
<circle cx="131" cy="227" r="2" fill="#49C5B6"/>
<circle cx="146" cy="227" r="2" fill="#49C5B6"/>
<circle cx="170" cy="227" r="2" fill="#49C5B6"/>
<circle cx="2" cy="242" r="2" fill="#49C5B6"/>
<circle cx="17" cy="242" r="2" fill="#49C5B6"/>
<circle cx="41" cy="242" r="2" fill="#49C5B6"/>
<circle cx="56" cy="242" r="2" fill="#49C5B6"/>
<circle cx="71" cy="242" r="2" fill="#49C5B6"/>
<circle cx="86" cy="242" r="2" fill="#49C5B6"/>
<circle cx="101" cy="242" r="2" fill="#49C5B6"/>
<circle cx="116" cy="242" r="2" fill="#49C5B6"/>
<circle cx="131" cy="242" r="2" fill="#49C5B6"/>
<circle cx="146" cy="242" r="2" fill="#49C5B6"/>
<circle cx="170" cy="242" r="2" fill="#49C5B6"/>
<circle cx="2" cy="257" r="2" fill="#49C5B6"/>
<circle cx="17" cy="257" r="2" fill="#49C5B6"/>
<circle cx="41" cy="257" r="2" fill="#49C5B6"/>
<circle cx="56" cy="257" r="2" fill="#49C5B6"/>
<circle cx="71" cy="257" r="2" fill="#49C5B6"/>
<circle cx="86" cy="257" r="2" fill="#49C5B6"/>
<circle cx="101" cy="257" r="2" fill="#49C5B6"/>
<circle cx="116" cy="257" r="2" fill="#49C5B6"/>
<circle cx="131" cy="257" r="2" fill="#49C5B6"/>
<circle cx="146" cy="257" r="2" fill="#49C5B6"/>
<circle cx="170" cy="257" r="2" fill="#49C5B6"/>
<circle cx="2" cy="272" r="2" fill="#49C5B6"/>
<circle cx="17" cy="272" r="2" fill="#49C5B6"/>
<circle cx="41" cy="272" r="2" fill="#49C5B6"/>
<circle cx="56" cy="272" r="2" fill="#49C5B6"/>
<circle cx="71" cy="272" r="2" fill="#49C5B6"/>
<circle cx="86" cy="272" r="2" fill="#49C5B6"/>
<circle cx="101" cy="272" r="2" fill="#49C5B6"/>
<circle cx="116" cy="272" r="2" fill="#49C5B6"/>
<circle cx="131" cy="272" r="2" fill="#49C5B6"/>
<circle cx="146" cy="272" r="2" fill="#49C5B6"/>
<circle cx="170" cy="272" r="2" fill="#49C5B6"/>
<circle cx="2" cy="287" r="2" fill="#49C5B6"/>
<circle cx="17" cy="287" r="2" fill="#49C5B6"/>
<circle cx="41" cy="287" r="2" fill="#49C5B6"/>
<circle cx="56" cy="287" r="2" fill="#49C5B6"/>
<circle cx="71" cy="287" r="2" fill="#49C5B6"/>
<circle cx="86" cy="287" r="2" fill="#49C5B6"/>
<circle cx="101" cy="287" r="2" fill="#49C5B6"/>
<circle cx="116" cy="287" r="2" fill="#49C5B6"/>
<circle cx="131" cy="287" r="2" fill="#49C5B6"/>
<circle cx="146" cy="287" r="2" fill="#49C5B6"/>
<circle cx="170" cy="287" r="2" fill="#49C5B6"/>
<circle cx="2" cy="302" r="2" fill="#49C5B6"/>
<circle cx="17" cy="302" r="2" fill="#49C5B6"/>
<circle cx="41" cy="302" r="2" fill="#49C5B6"/>
<circle cx="56" cy="302" r="2" fill="#49C5B6"/>
<circle cx="71" cy="302" r="2" fill="#49C5B6"/>
<circle cx="86" cy="302" r="2" fill="#49C5B6"/>
<circle cx="101" cy="302" r="2" fill="#49C5B6"/>
<circle cx="116" cy="302" r="2" fill="#49C5B6"/>
<circle cx="131" cy="302" r="2" fill="#49C5B6"/>
<circle cx="146" cy="302" r="2" fill="#49C5B6"/>
<circle cx="170" cy="302" r="2" fill="#49C5B6"/>
<circle cx="2" cy="317" r="2" fill="#49C5B6"/>
<circle cx="17" cy="317" r="2" fill="#49C5B6"/>
<circle cx="41" cy="317" r="2" fill="#49C5B6"/>
<circle cx="56" cy="317" r="2" fill="#49C5B6"/>
<circle cx="71" cy="317" r="2" fill="#49C5B6"/>
<circle cx="86" cy="317" r="2" fill="#49C5B6"/>
<circle cx="101" cy="317" r="2" fill="#49C5B6"/>
<circle cx="116" cy="317" r="2" fill="#49C5B6"/>
<circle cx="131" cy="317" r="2" fill="#49C5B6"/>
<circle cx="146" cy="317" r="2" fill="#49C5B6"/>
<circle cx="170" cy="317" r="2" fill="#49C5B6"/>
<circle cx="2" cy="332" r="2" fill="#49C5B6"/>
<circle cx="17" cy="332" r="2" fill="#49C5B6"/>
<circle cx="41" cy="332" r="2" fill="#49C5B6"/>
<circle cx="56" cy="332" r="2" fill="#49C5B6"/>
<circle cx="71" cy="332" r="2" fill="#49C5B6"/>
<circle cx="86" cy="332" r="2" fill="#49C5B6"/>
<circle cx="101" cy="332" r="2" fill="#49C5B6"/>
<circle cx="116" cy="332" r="2" fill="#49C5B6"/>
<circle cx="131" cy="332" r="2" fill="#49C5B6"/>
<circle cx="146" cy="332" r="2" fill="#49C5B6"/>
<circle cx="170" cy="332" r="2" fill="#49C5B6"/>
<circle cx="2" cy="347" r="2" fill="#49C5B6"/>
<circle cx="17" cy="347" r="2" fill="#49C5B6"/>
<circle cx="41" cy="347" r="2" fill="#49C5B6"/>
<circle cx="56" cy="347" r="2" fill="#49C5B6"/>
<circle cx="71" cy="347" r="2" fill="#49C5B6"/>
<circle cx="86" cy="347" r="2" fill="#49C5B6"/>
<circle cx="101" cy="347" r="2" fill="#49C5B6"/>
<circle cx="116" cy="347" r="2" fill="#49C5B6"/>
<circle cx="131" cy="347" r="2" fill="#49C5B6"/>
<circle cx="146" cy="347" r="2" fill="#49C5B6"/>
<circle cx="170" cy="347" r="2" fill="#49C5B6"/>
<circle cx="2" cy="362" r="2" fill="#49C5B6"/>
<circle cx="17" cy="362" r="2" fill="#49C5B6"/>
<circle cx="41" cy="362" r="2" fill="#49C5B6"/>
<circle cx="56" cy="362" r="2" fill="#49C5B6"/>
<circle cx="71" cy="362" r="2" fill="#49C5B6"/>
<circle cx="86" cy="362" r="2" fill="#49C5B6"/>
<circle cx="101" cy="362" r="2" fill="#49C5B6"/>
<circle cx="116" cy="362" r="2" fill="#49C5B6"/>
<circle cx="131" cy="362" r="2" fill="#49C5B6"/>
<circle cx="146" cy="362" r="2" fill="#49C5B6"/>
<circle cx="170" cy="362" r="2" fill="#49C5B6"/>
<circle cx="2" cy="377" r="2" fill="#49C5B6"/>
<circle cx="17" cy="377" r="2" fill="#49C5B6"/>
<circle cx="41" cy="377" r="2" fill="#49C5B6"/>
<circle cx="56" cy="377" r="2" fill="#49C5B6"/>
<circle cx="71" cy="377" r="2" fill="#49C5B6"/>
<circle cx="86" cy="377" r="2" fill="#49C5B6"/>
<circle cx="101" cy="377" r="2" fill="#49C5B6"/>
<circle cx="116" cy="377" r="2" fill="#49C5B6"/>
<circle cx="131" cy="377" r="2" fill="#49C5B6"/>
<circle cx="146" cy="377" r="2" fill="#49C5B6"/>
<circle cx="170" cy="377" r="2" fill="#49C5B6"/>
<circle cx="2" cy="392" r="2" fill="#49C5B6"/>
<circle cx="17" cy="392" r="2" fill="#49C5B6"/>
<circle cx="41" cy="392" r="2" fill="#49C5B6"/>
<circle cx="56" cy="392" r="2" fill="#49C5B6"/>
<circle cx="71" cy="392" r="2" fill="#49C5B6"/>
<circle cx="86" cy="392" r="2" fill="#49C5B6"/>
<circle cx="101" cy="392" r="2" fill="#49C5B6"/>
<circle cx="116" cy="392" r="2" fill="#49C5B6"/>
<circle cx="131" cy="392" r="2" fill="#49C5B6"/>
<circle cx="146" cy="392" r="2" fill="#49C5B6"/>
<circle cx="170" cy="392" r="2" fill="#49C5B6"/>
</svg>
