<svg width="17" height="17" viewBox="0 0 17 17" fill="none" xmlns="http://www.w3.org/2000/svg">
<path d="M8.5 0L9.04431 5.93921L11.9573 0.734864L10.0388 6.38199L14.8167 2.81239L10.7673 7.191L16.584 5.87336L11.1037 8.22634L16.9534 9.38849L10.9899 9.30901L15.8612 12.75L10.4456 10.2518L13.4962 15.3766L9.56484 10.8917L10.2672 16.8143L8.5 11.118L6.73275 16.8143L7.43516 10.8917L3.50383 15.3766L6.55445 10.2518L1.13878 12.75L6.01013 9.30901L0.0465641 9.38849L5.89634 8.22634L0.416019 5.87336L6.23275 7.191L2.18327 2.81239L6.96118 6.38199L5.04274 0.734864L7.95569 5.93921L8.5 0Z" fill="#49C5B6"/>
</svg>
